<svg width="21" height="24" viewBox="0 0 21 24" fill="none" xmlns="http://www.w3.org/2000/svg">
<path d="M19.8613 8.18242C19.7188 8.29043 17.2031 9.67537 17.2031 12.7549C17.2031 16.3168 20.4042 17.577 20.5 17.6082C20.4853 17.685 19.9915 19.3339 18.8122 21.0141C17.7608 22.4926 16.6626 23.9688 14.9921 23.9688C13.3215 23.9688 12.8916 23.0207 10.9631 23.0207C9.08371 23.0207 8.41549 24 6.88742 24C5.35935 24 4.29315 22.6319 3.06725 20.9517C1.64728 18.9787 0.5 15.9136 0.5 13.0045C0.5 8.33843 3.60527 5.86379 6.66141 5.86379C8.28528 5.86379 9.63893 6.90549 10.6585 6.90549C11.6289 6.90549 13.1422 5.80138 14.9896 5.80138C15.6898 5.80138 18.2054 5.86379 19.8613 8.18242ZM14.1126 3.82598C14.8766 2.94029 15.4171 1.71137 15.4171 0.482448C15.4171 0.312031 15.4023 0.139214 15.3704 0C14.1273 0.0456046 12.6484 0.808881 11.7566 1.81938C11.0564 2.59706 10.403 3.82598 10.403 5.07171C10.403 5.25893 10.4349 5.44614 10.4496 5.50615C10.5283 5.52055 10.656 5.53735 10.7837 5.53735C11.8991 5.53735 13.3019 4.80768 14.1126 3.82598Z" fill="black"/>
</svg>
