<svg width="80" height="80" viewBox="0 0 80 80" fill="none" xmlns="http://www.w3.org/2000/svg">
<g clip-path="url(#clip0_54_1611)">
<path d="M78.2147 31.3437C79.3366 28.8118 79.9711 26.0159 79.9989 23.0748C80.1058 11.8293 71.216 2.43433 59.98 1.95511C56.2939 1.79792 52.8074 2.59433 49.7464 4.11808C46.7189 5.62675 43.3824 6.41201 39.9998 6.41201C36.6171 6.41201 33.2807 5.62675 30.2531 4.11808C27.1924 2.59433 23.7058 1.79792 20.0197 1.95511C8.78408 2.43448 -0.105768 11.8292 0.000950829 23.0748C0.0289196 26.0159 0.663295 28.8118 1.78517 31.3437C2.99274 34.0698 3.61658 37.0184 3.61658 40C3.61658 42.9815 2.99274 45.9301 1.78517 48.6562C0.663295 51.1881 0.0287633 53.9842 0.000950829 56.9253C-0.105768 68.1709 8.78408 77.5656 20.02 78.0448C23.7061 78.202 27.1927 77.4056 30.2535 75.8818C33.2809 74.3731 36.6174 73.5879 39.9999 73.5879C43.3825 73.5879 46.7189 74.3731 49.7464 75.8818C52.8072 77.4056 56.2939 78.202 59.98 78.0448C71.2158 77.5656 80.1056 68.1707 79.9989 56.9253C79.971 53.9842 79.3366 51.1882 78.2147 48.6564C77.0071 45.9302 76.3833 42.9816 76.3833 40C76.3833 37.0184 77.0071 34.0698 78.2147 31.3437Z" fill="url(#paint0_linear_54_1611)"/>
<path d="M70.5727 25.8074H70.1039V25.3387C70.1039 25.1315 70.0216 24.9327 69.8751 24.7862C69.7286 24.6397 69.5299 24.5574 69.3227 24.5574C69.1155 24.5574 68.9168 24.6397 68.7703 24.7862C68.6237 24.9327 68.5414 25.1315 68.5414 25.3387V25.8074H68.0727C67.8655 25.8074 67.6668 25.8897 67.5203 26.0362C67.3737 26.1827 67.2914 26.3815 67.2914 26.5887C67.2914 26.7959 67.3737 26.9946 67.5203 27.1411C67.6668 27.2876 67.8655 27.3699 68.0727 27.3699H68.5414V27.8387C68.5414 28.0459 68.6237 28.2446 68.7703 28.3911C68.9168 28.5376 69.1155 28.6199 69.3227 28.6199C69.5299 28.6199 69.7286 28.5376 69.8751 28.3911C70.0216 28.2446 70.1039 28.0459 70.1039 27.8387V27.3699H70.5727C70.7799 27.3699 70.9786 27.2876 71.1251 27.1411C71.2716 26.9946 71.3539 26.7959 71.3539 26.5887C71.3539 26.3815 71.2716 26.1827 71.1251 26.0362C70.9786 25.8897 70.7799 25.8074 70.5727 25.8074ZM15.4166 43.4255H14.9478V42.9568C14.9478 42.7496 14.8655 42.5509 14.719 42.4044C14.5725 42.2578 14.3738 42.1755 14.1666 42.1755C13.9594 42.1755 13.7607 42.2578 13.6142 42.4044C13.4676 42.5509 13.3853 42.7496 13.3853 42.9568V43.4255H12.9166C12.7094 43.4255 12.5107 43.5078 12.3642 43.6544C12.2176 43.8009 12.1353 43.9996 12.1353 44.2068C12.1353 44.414 12.2176 44.6127 12.3642 44.7592C12.5107 44.9057 12.7094 44.988 12.9166 44.988H13.3853V45.4568C13.3853 45.664 13.4676 45.8627 13.6142 46.0092C13.7607 46.1557 13.9594 46.238 14.1666 46.238C14.3738 46.238 14.5725 46.1557 14.719 46.0092C14.8655 45.8627 14.9478 45.664 14.9478 45.4568V44.988H15.4166C15.6238 44.988 15.8225 44.9057 15.969 44.7592C16.1155 44.6127 16.1978 44.414 16.1978 44.2068C16.1978 43.9996 16.1155 43.8009 15.969 43.6544C15.8225 43.5078 15.6238 43.4255 15.4166 43.4255ZM69.0927 67.6616H68.6239V67.1929C68.6239 66.9857 68.5416 66.787 68.3951 66.6405C68.2486 66.4939 68.0499 66.4116 67.8427 66.4116C67.6355 66.4116 67.4368 66.4939 67.2903 66.6405C67.1437 66.787 67.0614 66.9857 67.0614 67.1929V67.6616H66.5927C66.3855 67.6616 66.1868 67.7439 66.0403 67.8905C65.8937 68.037 65.8114 68.2357 65.8114 68.4429C65.8114 68.6501 65.8937 68.8488 66.0403 68.9953C66.1868 69.1418 66.3855 69.2241 66.5927 69.2241H67.0614V69.6929C67.0614 69.9001 67.1437 70.0988 67.2903 70.2453C67.4368 70.3918 67.6355 70.4741 67.8427 70.4741C68.0499 70.4741 68.2486 70.3918 68.3951 70.2453C68.5416 70.0988 68.6239 69.9001 68.6239 69.6929V69.2241H69.0927C69.2999 69.2241 69.4986 69.1418 69.6451 68.9953C69.7916 68.8488 69.8739 68.6501 69.8739 68.4429C69.8739 68.2357 69.7916 68.037 69.6451 67.8905C69.4986 67.7439 69.2999 67.6616 69.0927 67.6616ZM14.1666 19.5312C14.064 19.5313 13.9623 19.5111 13.8675 19.4719C13.7727 19.4326 13.6866 19.3749 13.6141 19.3023L12.9166 18.6048L12.2191 19.3023C12.1469 19.3763 12.0607 19.4353 11.9655 19.4758C11.8704 19.5163 11.7681 19.5375 11.6647 19.5381C11.5612 19.5388 11.4587 19.5189 11.363 19.4797C11.2674 19.4404 11.1804 19.3825 11.1073 19.3094C11.0341 19.2362 10.9762 19.1493 10.937 19.0536C10.8977 18.958 10.8778 18.8554 10.8784 18.752C10.8791 18.6486 10.9003 18.5463 10.9407 18.4511C10.9812 18.356 11.0402 18.2698 11.1142 18.1976L12.3642 16.9476C12.5108 16.8011 12.7095 16.7188 12.9167 16.7188C13.1239 16.7188 13.3226 16.8011 13.4691 16.9476L14.7191 18.1976C14.8285 18.3068 14.903 18.446 14.9332 18.5976C14.9634 18.7492 14.948 18.9063 14.8888 19.0491C14.8296 19.1919 14.7294 19.314 14.6009 19.3998C14.4723 19.4856 14.3212 19.5313 14.1666 19.5312ZM11.6666 25.7151C11.564 25.7152 11.4623 25.695 11.3675 25.6558C11.2727 25.6165 11.1866 25.5588 11.1141 25.4862L10.4166 24.7887L9.71909 25.4862C9.64689 25.5602 9.56071 25.6192 9.46554 25.6597C9.37036 25.7002 9.2681 25.7214 9.16467 25.7221C9.06125 25.7227 8.95872 25.7028 8.86304 25.6636C8.76735 25.6243 8.68042 25.5664 8.60728 25.4933C8.53414 25.4202 8.47625 25.3332 8.43696 25.2376C8.39768 25.1419 8.37779 25.0394 8.37843 24.9359C8.37908 24.8325 8.40026 24.7302 8.44074 24.6351C8.48122 24.5399 8.5402 24.4537 8.61425 24.3815L9.86425 23.1315C10.0108 22.985 10.2095 22.9027 10.4167 22.9027C10.6239 22.9027 10.8226 22.985 10.9691 23.1315L12.2191 24.3815C12.3285 24.4907 12.403 24.6299 12.4332 24.7815C12.4634 24.9331 12.448 25.0902 12.3888 25.233C12.3296 25.3758 12.2294 25.4979 12.1009 25.5837C11.9723 25.6695 11.8212 25.7152 11.6666 25.7151Z" fill="#CCCCFF"/>
<path d="M66.5095 40.8741C65.0094 40.9022 63.8019 42.127 63.8019 43.6339V41.8631C63.8019 40.4816 62.7859 39.3405 61.4609 39.138V11.1686C61.4609 10.3576 60.8031 9.69983 59.9922 9.69983H20.0078C19.1969 9.69983 18.5391 10.3576 18.5391 11.1686V74.5748C18.5391 75.3858 19.1969 76.0436 20.0078 76.0436H59.9922C60.8031 76.0436 61.4609 75.3858 61.4609 74.5748V67.0722C65.9884 65.8573 69.3227 61.727 69.3227 56.8161V43.7064C69.3227 42.1591 68.0564 40.8451 66.5095 40.8741Z" fill="#2626BC" fill-opacity="0.0627451"/>
<path d="M61.4609 6.94983V70.3561C61.4609 71.167 60.8031 71.8248 59.9922 71.8248H20.0078C19.1969 71.8248 18.5391 71.167 18.5391 70.3561V6.94983C18.5391 6.13889 19.1969 5.48108 20.0078 5.48108H59.9922C60.8031 5.48108 61.4609 6.13889 61.4609 6.94983Z" fill="white"/>
<path d="M61.461 54.9032V70.3563C61.461 71.1673 60.8032 71.8251 59.9923 71.8251H20.0079C19.1969 71.8251 18.5391 71.1673 18.5391 70.3563V54.9032H61.461Z" fill="#CCCCFF"/>
<path d="M52.8532 65.8453C52.8532 66.2781 52.5032 66.6266 52.072 66.6266H27.9282C27.497 66.6266 27.147 66.2781 27.147 65.8453C27.147 65.4141 27.497 65.0641 27.9282 65.0641H52.072C52.5032 65.0641 52.8532 65.4141 52.8532 65.8453ZM33.6213 62.0174H27.9282C27.721 62.0174 27.5223 62.0997 27.3758 62.2462C27.2293 62.3927 27.147 62.5914 27.147 62.7986C27.147 63.0058 27.2293 63.2045 27.3758 63.351C27.5223 63.4976 27.721 63.5799 27.9282 63.5799H33.6213C33.8285 63.5799 34.0273 63.4976 34.1738 63.351C34.3203 63.2045 34.4026 63.0058 34.4026 62.7986C34.4026 62.5914 34.3203 62.3927 34.1738 62.2462C34.0273 62.0997 33.8285 62.0174 33.6213 62.0174ZM49.9813 62.7985C49.9813 63.0141 49.8938 63.2094 49.7532 63.35C49.611 63.4922 49.4157 63.5797 49.2001 63.5797H37.3438C36.8876 63.5797 36.522 63.1875 36.5657 62.7219C36.6048 62.3157 36.9688 62.0172 37.3767 62.0172H49.2001C49.6313 62.0172 49.9813 62.3672 49.9813 62.7985Z" fill="#4285F4"/>
<path d="M30.739 59.7469C31.1704 59.7469 31.5202 59.3972 31.5202 58.9657C31.5202 58.5342 31.1704 58.1844 30.739 58.1844C30.3075 58.1844 29.9577 58.5342 29.9577 58.9657C29.9577 59.3972 30.3075 59.7469 30.739 59.7469Z" fill="#4285F4"/>
<path d="M28.1999 59.7469C28.6314 59.7469 28.9811 59.3972 28.9811 58.9657C28.9811 58.5342 28.6314 58.1844 28.1999 58.1844C27.7684 58.1844 27.4186 58.5342 27.4186 58.9657C27.4186 59.3972 27.7684 59.7469 28.1999 59.7469Z" fill="#4285F4"/>
<path d="M61.4611 13.111V6.95115C61.4611 6.5612 61.3062 6.18722 61.0305 5.91148C60.7547 5.63574 60.3808 5.48083 59.9908 5.48083H20.0093C19.6193 5.48083 19.2453 5.63574 18.9696 5.91148C18.6938 6.18722 18.5389 6.5612 18.5389 6.95115V13.111H61.4611Z" fill="#CCCCFF"/>
<path d="M31.3311 13.111L37.0863 5.48083H20.0086C19.6188 5.48083 19.2451 5.63566 18.9695 5.91125C18.6939 6.18684 18.5391 6.56062 18.5391 6.95037V13.1108L31.3311 13.111Z" fill="#CCCCFF"/>
<path d="M56.6649 10.3036H38.969C38.7767 10.2996 38.5937 10.2204 38.4591 10.083C38.3245 9.94567 38.2491 9.76102 38.2491 9.56871C38.2491 9.3764 38.3245 9.19175 38.4591 9.05437C38.5937 8.91699 38.7767 8.83783 38.969 8.83386H56.6651C56.8574 8.83785 57.0404 8.91703 57.175 9.05442C57.3095 9.19182 57.3849 9.37647 57.3849 9.56878C57.3848 9.76109 57.3094 9.94573 57.1749 10.0831C57.0403 10.2205 56.8572 10.2996 56.6649 10.3036Z" fill="#4285F4"/>
<path d="M49.6221 32.2123C53.9871 32.2123 57.5256 28.6738 57.5256 24.3088C57.5256 19.9439 53.9871 16.4054 49.6221 16.4054C45.2572 16.4054 41.7187 19.9439 41.7187 24.3088C41.7187 28.6738 45.2572 32.2123 49.6221 32.2123Z" fill="#CCCCFF"/>
<path d="M47.3293 27.4388H46.4964C45.4795 27.4388 44.6522 26.6114 44.6522 25.5945V23.0231C44.6522 22.0063 45.4795 21.1791 46.4964 21.1791H47.3293C48.3462 21.1791 49.1736 22.0063 49.1736 23.0231V25.5945C49.1736 26.6114 48.3462 27.4388 47.3293 27.4388ZM46.4964 22.7417C46.3411 22.7417 46.2147 22.8681 46.2147 23.0233V25.5947C46.2147 25.75 46.3411 25.8764 46.4964 25.8764H47.3293C47.4847 25.8764 47.6111 25.75 47.6111 25.5947V23.0233C47.6111 22.8681 47.4847 22.7417 47.3293 22.7417H46.4964ZM53.8108 27.37H50.9814C50.8196 27.37 50.6617 27.3198 50.5297 27.2263C50.3976 27.1328 50.2979 27.0006 50.2442 26.848C50.1905 26.6953 50.1856 26.5298 50.23 26.3742C50.2744 26.2186 50.3661 26.0806 50.4923 25.9794C51.2801 25.3466 52.4993 24.1902 52.7433 23.6C52.837 23.3733 52.8222 23.1231 52.7045 22.9475C52.6131 22.8108 52.4772 22.7416 52.3004 22.7416C52.1579 22.7417 52.0212 22.7984 51.9204 22.8992C51.8196 23 51.7628 23.1367 51.7626 23.2792C51.7626 23.4864 51.6803 23.6851 51.5338 23.8317C51.3873 23.9782 51.1886 24.0605 50.9814 24.0605C50.7742 24.0605 50.5755 23.9782 50.429 23.8317C50.2824 23.6851 50.2001 23.4864 50.2001 23.2792C50.2001 22.1213 51.1423 21.1791 52.3004 21.1791C53.0003 21.1791 53.6209 21.507 54.0034 22.0789C54.4133 22.6919 54.482 23.4836 54.1873 24.1969C53.9758 24.7085 53.5001 25.2902 53.0008 25.8075H53.8108C54.018 25.8075 54.2167 25.8898 54.3632 26.0363C54.5097 26.1828 54.592 26.3816 54.592 26.5888C54.592 26.796 54.5097 26.9947 54.3632 27.1412C54.2167 27.2877 54.018 27.37 53.8108 27.37Z" fill="#4285F4"/>
<path d="M30.378 51.3006C34.743 51.3006 38.2815 47.7622 38.2815 43.3972C38.2815 39.0323 34.743 35.4938 30.378 35.4938C26.0131 35.4938 22.4746 39.0323 22.4746 43.3972C22.4746 47.7622 26.0131 51.3006 30.378 51.3006Z" fill="#CCCCFF"/>
<path d="M28.183 46.5271H27.3501C26.3332 46.5271 25.5059 45.6997 25.5059 44.6828V42.1114C25.5059 41.0946 26.3332 40.2672 27.3501 40.2672H28.183C29.1999 40.2672 30.0273 41.0946 30.0273 42.1114V44.6828C30.0273 45.6997 29.1999 46.5271 28.183 46.5271ZM27.3501 41.8299C27.1948 41.8299 27.0684 41.9563 27.0684 42.1116V44.683C27.0684 44.8383 27.1948 44.9647 27.3501 44.9647H28.183C28.3384 44.9647 28.4648 44.8383 28.4648 44.683V42.1116C28.4648 41.9563 28.3384 41.8299 28.183 41.8299H27.3501ZM33.2948 44.1785H31.827C31.6198 44.1785 31.421 44.0962 31.2745 43.9496C31.128 43.8031 31.0457 43.6044 31.0457 43.3972C31.0457 43.19 31.128 42.9913 31.2745 42.8448C31.421 42.6983 31.6198 42.616 31.827 42.616H33.2948C33.5115 42.616 33.6879 42.4396 33.6879 42.2228C33.6879 42.0061 33.5116 41.8297 33.2948 41.8297H31.827C31.6198 41.8297 31.421 41.7474 31.2745 41.6009C31.128 41.4544 31.0457 41.2557 31.0457 41.0485C31.0457 40.8413 31.128 40.6425 31.2745 40.496C31.421 40.3495 31.6198 40.2672 31.827 40.2672H33.2948C34.373 40.2672 35.2504 41.1444 35.2504 42.2228C35.2504 43.3013 34.373 44.1785 33.2948 44.1785Z" fill="#4285F4"/>
<path d="M33.2948 46.5271H31.827C31.6198 46.5271 31.4211 46.4448 31.2745 46.2983C31.128 46.1518 31.0457 45.953 31.0457 45.7458C31.0457 45.5386 31.128 45.3399 31.2745 45.1934C31.4211 45.0469 31.6198 44.9646 31.827 44.9646H33.2948C33.5115 44.9646 33.6879 44.7882 33.6879 44.5715C33.6879 44.3547 33.5117 44.1783 33.2948 44.1783H31.827C31.6198 44.1783 31.4211 44.096 31.2745 43.9495C31.128 43.803 31.0457 43.6043 31.0457 43.3971C31.0457 43.1899 31.128 42.9912 31.2745 42.8447C31.4211 42.6982 31.6198 42.6158 31.827 42.6158H33.2948C34.3731 42.6158 35.2504 43.493 35.2504 44.5715C35.2504 45.6499 34.3731 46.5271 33.2948 46.5271Z" fill="#4285F4"/>
<path d="M49.6221 51.3006C53.9871 51.3006 57.5256 47.7622 57.5256 43.3972C57.5256 39.0323 53.9871 35.4938 49.6221 35.4938C45.2572 35.4938 41.7187 39.0323 41.7187 43.3972C41.7187 47.7622 45.2572 51.3006 49.6221 51.3006Z" fill="#CCCCFF"/>
<path d="M30.378 32.2123C34.743 32.2123 38.2815 28.6738 38.2815 24.3088C38.2815 19.9439 34.743 16.4054 30.378 16.4054C26.0131 16.4054 22.4746 19.9439 22.4746 24.3088C22.4746 28.6738 26.0131 32.2123 30.378 32.2123Z" fill="#CCCCFF"/>
<path d="M29.0747 27.4388H28.2416C27.2247 27.4388 26.3974 26.6114 26.3974 25.5945V23.0231C26.3974 22.0063 27.2247 21.1791 28.2416 21.1791H29.0747C30.0916 21.1791 30.919 22.0063 30.919 23.0231V25.5945C30.919 26.6114 30.0916 27.4388 29.0747 27.4388ZM28.2418 22.7417C28.0865 22.7417 27.9601 22.8681 27.9601 23.0233V25.5947C27.9601 25.75 28.0865 25.8764 28.2418 25.8764H29.0749C29.2302 25.8764 29.3566 25.75 29.3566 25.5947V23.0233C29.3566 22.8681 29.2302 22.7417 29.0749 22.7417H28.2418ZM33.5772 27.4388C33.37 27.4388 33.1713 27.3565 33.0248 27.2099C32.8783 27.0634 32.796 26.8647 32.796 26.6575V22.7416H32.7266C32.5194 22.7416 32.3207 22.6593 32.1742 22.5128C32.0277 22.3662 31.9454 22.1675 31.9454 21.9603C31.9454 21.7531 32.0277 21.5544 32.1742 21.4079C32.3207 21.2614 32.5194 21.1791 32.7266 21.1791H33.5772C33.7844 21.1791 33.9832 21.2614 34.1297 21.4079C34.2762 21.5544 34.3585 21.7531 34.3585 21.9603V26.6575C34.3585 26.8647 34.2762 27.0634 34.1297 27.2099C33.9832 27.3565 33.7844 27.4388 33.5772 27.4388Z" fill="#4285F4"/>
<path d="M66.5096 36.6553C65.0095 36.6834 63.802 37.9083 63.802 39.4152V37.6444C63.802 36.1198 62.566 34.8839 61.0415 34.8839C59.517 34.8839 58.281 36.1198 58.281 37.6444V36.4986C58.281 34.9741 57.0451 33.7381 55.5206 33.7381C53.996 33.7381 52.7601 34.9741 52.7601 36.4986V27.8209C52.7601 26.2738 51.494 24.9597 49.947 24.9888C48.4468 25.0169 47.2393 26.2417 47.2393 27.7488V44.207C47.2393 42.6825 46.0034 41.4466 44.4789 41.4466C42.9543 41.4466 41.7184 42.6825 41.7184 44.207V52.5973C41.7184 58.4627 46.4732 63.2175 52.3385 63.2175H58.7024C64.5678 63.2175 69.3226 58.4627 69.3226 52.5973V39.4877C69.3228 37.9403 68.0565 36.6264 66.5096 36.6553Z" fill="white"/>
<path d="M29.9531 71.0436H20.0086C19.8261 71.0434 19.6512 70.9709 19.5221 70.8418C19.3931 70.7128 19.3205 70.5378 19.3203 70.3554V6.95037C19.3205 6.76789 19.3931 6.59294 19.5221 6.46391C19.6512 6.33487 19.8261 6.26229 20.0086 6.26208H59.9916C60.174 6.26229 60.349 6.33487 60.478 6.46391C60.6071 6.59294 60.6796 6.76789 60.6798 6.95037V21.7238C60.6798 21.931 60.7622 22.1297 60.9087 22.2762C61.0552 22.4227 61.2539 22.5051 61.4611 22.5051C61.6683 22.5051 61.867 22.4227 62.0135 22.2762C62.16 22.1297 62.2423 21.931 62.2423 21.7238V6.95037C62.2423 5.70927 61.2327 4.69958 59.9916 4.69958H20.0086C18.7675 4.69958 17.7578 5.70927 17.7578 6.95037V70.3552C17.7578 71.5963 18.7675 72.606 20.0086 72.606H29.9531C30.0566 72.6075 30.1594 72.5883 30.2555 72.5497C30.3515 72.5111 30.439 72.4538 30.5127 72.3811C30.5864 72.3085 30.6449 72.2218 30.6849 72.1263C30.7248 72.0308 30.7454 71.9283 30.7454 71.8248C30.7454 71.7213 30.7248 71.6188 30.6849 71.5233C30.6449 71.4278 30.5864 71.3412 30.5127 71.2685C30.439 71.1958 30.3515 71.1385 30.2555 71.0999C30.1594 71.0613 30.0566 71.0422 29.9531 71.0436Z" fill="#4285F4"/>
<path d="M69.0079 36.8871C68.3243 36.2163 67.4299 35.85 66.4949 35.8741C65.7202 35.8886 65.004 36.1572 64.4255 36.5985C64.0971 35.5377 63.2815 34.6905 62.2424 34.3146V26.5052C62.2424 26.298 62.1601 26.0993 62.0136 25.9528C61.8671 25.8063 61.6684 25.724 61.4612 25.724C61.254 25.724 61.0552 25.8063 60.9087 25.9528C60.7622 26.0993 60.6799 26.298 60.6799 26.5052V34.1224C59.9533 34.1963 59.2675 34.4939 58.7172 34.9741C58.1465 33.7821 56.9282 32.9568 55.5207 32.9568C54.8151 32.956 54.1256 33.1671 53.5415 33.5627V27.8208C53.5415 26.8519 53.1419 25.9041 52.4455 25.2205C51.7619 24.5497 50.8719 24.1879 49.9324 24.2076C48.0166 24.2433 46.4582 25.8319 46.4582 27.7485V41.2711C45.874 40.8755 45.1845 40.6644 44.479 40.6652C42.526 40.6652 40.9372 42.254 40.9372 44.2068V52.5971C40.9372 58.8838 46.0519 63.9985 52.3387 63.9985H58.7026C59.3771 63.9985 60.0371 63.9363 60.6797 63.8233V70.3554C60.6795 70.5378 60.607 70.7128 60.4779 70.8418C60.3489 70.9709 60.1739 71.0434 59.9915 71.0436H34.7344C34.5272 71.0436 34.3285 71.126 34.182 71.2725C34.0355 71.419 33.9532 71.6177 33.9532 71.8249C33.9532 72.0321 34.0355 72.2308 34.182 72.3773C34.3285 72.5238 34.5272 72.6061 34.7344 72.6061H59.9915C61.2326 72.6061 62.2422 71.5965 62.2422 70.3554V63.4332C66.8008 61.9402 70.1038 57.6483 70.1038 52.5971V39.4875C70.104 38.5185 69.7044 37.5707 69.0079 36.8871ZM68.5415 52.5971C68.5415 58.0222 64.1277 62.436 58.7026 62.436H52.3387C46.9135 62.436 42.4997 58.0222 42.4997 52.5971V44.2068C42.4997 43.1155 43.3876 42.2277 44.479 42.2277C45.5702 42.2277 46.4582 43.1155 46.4582 44.2068V51.368C46.4582 51.5752 46.5405 51.7739 46.687 51.9204C46.8335 52.067 47.0322 52.1493 47.2394 52.1493C47.4466 52.1493 47.6453 52.067 47.7919 51.9204C47.9384 51.7739 48.0207 51.5752 48.0207 51.368V27.7485C48.0207 26.6776 48.8915 25.7897 49.9618 25.7697C50.4754 25.7647 50.9694 25.9613 51.3512 26.3357C51.7502 26.7274 51.9791 27.2688 51.9791 27.8208V44.1027C51.9791 44.3099 52.0614 44.5086 52.2079 44.6551C52.3545 44.8016 52.5532 44.884 52.7604 44.884C52.9676 44.884 53.1663 44.8016 53.3128 44.6551C53.4593 44.5086 53.5416 44.3099 53.5416 44.1027V36.4985C53.5416 35.4072 54.4294 34.5193 55.5208 34.5193C56.6122 34.5193 57.5001 35.4072 57.5001 36.4985V44.1027C57.5001 44.3099 57.5824 44.5086 57.7289 44.6551C57.8754 44.8016 58.0741 44.884 58.2813 44.884C58.4885 44.884 58.6872 44.8016 58.8337 44.6551C58.9802 44.5086 59.0626 44.3099 59.0626 44.1027V37.6443C59.0626 36.553 59.9504 35.6652 61.0418 35.6652C62.133 35.6652 63.021 36.553 63.021 37.6443V44.1027C63.021 44.3099 63.1033 44.5086 63.2498 44.6551C63.3963 44.8016 63.5951 44.884 63.8022 44.884C64.0095 44.884 64.2082 44.8016 64.3547 44.6551C64.5012 44.5086 64.5835 44.3099 64.5835 44.1027V39.4152C64.5835 38.3443 65.4543 37.4565 66.5246 37.4363C67.038 37.4332 67.5321 37.6279 67.9138 38.0022C68.313 38.3941 68.5419 38.9354 68.5419 39.4875V52.5971H68.5415Z" fill="#4285F4"/>
<path d="M32.1782 13.1111L37.7027 5.95967L36.4662 5.00452L30.2037 13.1111H32.1782Z" fill="#4285F4"/>
</g>
<defs>
<linearGradient id="paint0_linear_54_1611" x1="78.6675" y1="84.4315" x2="3.19127" y2="-2.29583" gradientUnits="userSpaceOnUse">
<stop stop-color="#D2DEFF" stop-opacity="0"/>
<stop offset="1" stop-color="#B7C5FF"/>
</linearGradient>
<clipPath id="clip0_54_1611">
<rect width="80" height="80" fill="white"/>
</clipPath>
</defs>
</svg>
