<svg width="54" height="53" viewBox="0 0 54 53" fill="none" xmlns="http://www.w3.org/2000/svg">
<path d="M42.4584 19.875C42.4584 23.077 41.5088 26.0142 39.8747 28.4654C37.4897 31.9987 33.7134 34.4941 29.3188 35.1345C28.568 35.267 27.7951 35.3333 27.0001 35.3333C26.2051 35.3333 25.4322 35.267 24.6813 35.1345C20.2867 34.4941 16.5105 31.9987 14.1255 28.4654C12.4913 26.0142 11.5417 23.077 11.5417 19.875C11.5417 11.3287 18.4538 4.41663 27.0001 4.41663C35.5463 4.41663 42.4584 11.3287 42.4584 19.875Z" stroke="#4285F4" stroke-width="1.5" stroke-linecap="round" stroke-linejoin="round"/>
<path d="M47.427 40.7879L43.7832 41.6491C42.9661 41.8478 42.3257 42.4662 42.1491 43.2833L41.3761 46.5295C40.9566 48.2962 38.7041 48.8262 37.5336 47.435L26.9999 35.3333L16.4661 47.457C15.2957 48.8483 13.0432 48.3182 12.6236 46.5516L11.8507 43.3053C11.652 42.4882 11.0116 41.8478 10.2166 41.6712L6.57281 40.81C4.89447 40.4125 4.29822 38.3145 5.51281 37.0999L14.1253 28.4874C16.5103 32.0208 20.2866 34.5162 24.6811 35.1566C25.432 35.2891 26.2049 35.3554 26.9999 35.3554C27.7949 35.3554 28.5678 35.2891 29.3186 35.1566C33.7132 34.5162 37.4895 32.0208 39.8745 28.4874L48.487 37.0999C49.7016 38.2924 49.1053 40.3904 47.427 40.7879Z" stroke="#4285F4" stroke-width="1.5" stroke-linecap="round" stroke-linejoin="round"/>
<path d="M28.2809 13.2059L29.5838 15.8117C29.7604 16.165 30.2242 16.5184 30.6438 16.5846L33.0067 16.9821C34.5084 17.225 34.8617 18.3292 33.7796 19.4113L31.9467 21.2442C31.6375 21.5533 31.4609 22.1496 31.5713 22.5913L32.1013 24.8659C32.5209 26.6546 31.5713 27.3612 29.9813 26.4117L27.7729 25.1088C27.3754 24.8658 26.7129 24.8658 26.3154 25.1088L24.1071 26.4117C22.5171 27.3392 21.5675 26.6546 21.9871 24.8659L22.5171 22.5913C22.6054 22.1717 22.4509 21.5533 22.1417 21.2442L20.3088 19.4113C19.2267 18.3292 19.58 17.2471 21.0817 16.9821L23.4446 16.5846C23.8421 16.5184 24.3059 16.165 24.4825 15.8117L25.7854 13.2059C26.4259 11.7925 27.5742 11.7925 28.2809 13.2059Z" stroke="#4285F4" stroke-width="1.5" stroke-linecap="round" stroke-linejoin="round"/>
</svg>
