<svg width="18" height="19" viewBox="0 0 18 19" fill="none" xmlns="http://www.w3.org/2000/svg">
<path d="M13.5001 5.87C13.4551 5.8625 13.4026 5.8625 13.3576 5.87C12.3226 5.8325 11.4976 4.985 11.4976 3.935C11.4976 2.8625 12.3601 2 13.4326 2C14.5051 2 15.3676 2.87 15.3676 3.935C15.3601 4.985 14.5351 5.8325 13.5001 5.87Z" stroke="#4285F4" stroke-linecap="round" stroke-linejoin="round"/>
<path d="M12.7276 11.33C13.7551 11.5025 14.8876 11.3225 15.6826 10.79C16.7401 10.085 16.7401 8.93 15.6826 8.225C14.8801 7.6925 13.7326 7.51249 12.7051 7.69249" stroke="#4285F4" stroke-linecap="round" stroke-linejoin="round"/>
<path d="M4.47761 5.87C4.52261 5.8625 4.57511 5.8625 4.62011 5.87C5.65511 5.8325 6.48011 4.985 6.48011 3.935C6.48011 2.8625 5.61761 2 4.54511 2C3.47261 2 2.61011 2.87 2.61011 3.935C2.61761 4.985 3.44261 5.8325 4.47761 5.87Z" stroke="#4285F4" stroke-linecap="round" stroke-linejoin="round"/>
<path d="M5.25008 11.33C4.22258 11.5025 3.09008 11.3225 2.29508 10.79C1.23758 10.085 1.23758 8.93 2.29508 8.225C3.09758 7.6925 4.24508 7.51249 5.27258 7.69249" stroke="#4285F4" stroke-linecap="round" stroke-linejoin="round"/>
<path d="M9.00006 11.4725C8.95506 11.465 8.90256 11.465 8.85756 11.4725C7.82256 11.435 6.99756 10.5875 6.99756 9.53754C6.99756 8.46504 7.86006 7.60254 8.93256 7.60254C10.0051 7.60254 10.8676 8.47254 10.8676 9.53754C10.8601 10.5875 10.0351 11.4425 9.00006 11.4725Z" stroke="#4285F4" stroke-linecap="round" stroke-linejoin="round"/>
<path d="M6.81754 13.835C5.76004 14.54 5.76004 15.695 6.81754 16.4C8.01754 17.2025 9.98254 17.2025 11.1825 16.4C12.24 15.695 12.24 14.54 11.1825 13.835C9.99004 13.04 8.01754 13.04 6.81754 13.835Z" stroke="#4285F4" stroke-linecap="round" stroke-linejoin="round"/>
</svg>
