<svg width="54" height="53" viewBox="0 0 54 53" fill="none" xmlns="http://www.w3.org/2000/svg">
<path d="M42.759 19.875C42.759 23.0771 41.8094 26.0142 40.1752 28.4655C37.7902 31.9988 34.014 34.4942 29.6194 35.1346C28.8685 35.2671 28.0956 35.3333 27.3006 35.3333C26.5056 35.3333 25.7327 35.2671 24.9819 35.1346C20.5873 34.4942 16.811 31.9988 14.426 28.4655C12.7919 26.0142 11.8423 23.0771 11.8423 19.875C11.8423 11.3288 18.7544 4.41667 27.3006 4.41667C35.8469 4.41667 42.759 11.3288 42.759 19.875Z" stroke="#08D75F" stroke-width="1.5" stroke-linecap="round" stroke-linejoin="round"/>
<path d="M47.7275 40.7879L44.0838 41.6491C43.2667 41.8479 42.6263 42.4663 42.4496 43.2833L41.6767 46.5296C41.2571 48.2963 39.0046 48.8263 37.8342 47.435L27.3004 35.3333L16.7667 47.4571C15.5963 48.8483 13.3438 48.3183 12.9242 46.5516L12.1513 43.3054C11.9525 42.4883 11.3121 41.8479 10.5171 41.6712L6.87334 40.81C5.19501 40.4125 4.59876 38.3146 5.81334 37.1L14.4258 28.4875C16.8108 32.0208 20.5871 34.5163 24.9817 35.1567C25.7325 35.2892 26.5054 35.3554 27.3004 35.3554C28.0954 35.3554 28.8683 35.2892 29.6192 35.1567C34.0138 34.5163 37.79 32.0208 40.175 28.4875L48.7875 37.1C50.0021 38.2925 49.4058 40.3904 47.7275 40.7879Z" stroke="#08D75F" stroke-width="1.5" stroke-linecap="round" stroke-linejoin="round"/>
<path d="M28.5811 13.2058L29.8841 15.8116C30.0607 16.165 30.5245 16.5183 30.9441 16.5846L33.307 16.9821C34.8086 17.225 35.162 18.3292 34.0799 19.4112L32.247 21.2441C31.9378 21.5533 31.7611 22.1496 31.8716 22.5912L32.4016 24.8658C32.8211 26.6546 31.8716 27.3612 30.2816 26.4116L28.0732 25.1087C27.6757 24.8658 27.0132 24.8658 26.6157 25.1087L24.4074 26.4116C22.8174 27.3391 21.8678 26.6546 22.2874 24.8658L22.8174 22.5912C22.9057 22.1717 22.7511 21.5533 22.442 21.2441L20.6091 19.4112C19.527 18.3292 19.8803 17.2471 21.382 16.9821L23.7449 16.5846C24.1424 16.5183 24.6061 16.165 24.7828 15.8116L26.0857 13.2058C26.7261 11.7925 27.8745 11.7925 28.5811 13.2058Z" stroke="#08D75F" stroke-width="1.5" stroke-linecap="round" stroke-linejoin="round"/>
</svg>
