<svg width="215" height="200" viewBox="0 0 215 200" fill="none" xmlns="http://www.w3.org/2000/svg">
<path d="M213.987 50.4542C212.455 21.354 187.589 -2.09414 160.765 0.148541C142.78 1.65228 109.018 10.4974 112.939 38.8119C116.136 61.8987 148.764 49.2992 157.01 75.306C169.763 115.527 87.8683 175.876 54.9867 144.302C44.8661 134.584 56.3198 107.834 60.0458 101.813C69.4108 86.6779 59.8914 71.3814 43.9778 71.7085C1.0135 72.5918 -0.621255 109.602 1.11197 135.004C5.17424 194.55 78.1737 210.119 119.091 194.09C211.958 157.709 215.949 87.7318 213.987 50.4542Z" fill="url(#paint0_linear_10_673)"/>
<path d="M200.455 147.112H145.242L145.24 147.113V135.602L145.242 135.602H190.071C190.624 135.602 191.155 135.382 191.546 134.991C191.937 134.6 192.157 134.069 192.157 133.516C192.157 132.963 191.937 132.432 191.546 132.041C191.155 131.649 190.624 131.43 190.071 131.43H145.242L145.24 131.43L145.242 117.796L176.92 117.882C181.61 117.858 185.387 114.063 185.387 109.374V47.9224C185.387 43.2225 181.585 39.4106 176.878 39.4106L49.1574 39.4131C48.6041 39.4131 48.0735 39.6329 47.6822 40.0242C47.291 40.4154 47.0712 40.946 47.0712 41.4993C47.0712 42.0526 47.291 42.5833 47.6822 42.9745C48.0735 43.3657 48.6041 43.5855 49.1574 43.5855H70.957C70.174 44.8968 69.7603 46.3955 69.76 47.9228V53.0106L69.7579 53.0102H40.2576C39.7043 53.0102 39.1737 53.23 38.7824 53.6212C38.3912 54.0125 38.1714 54.5431 38.1714 55.0964C38.1714 55.6497 38.3912 56.1803 38.7824 56.5716C39.1737 56.9628 39.7043 57.1826 40.2576 57.1826H69.7579L69.76 57.1822V68.6935L69.7579 68.6931H24.929C24.3757 68.6931 23.845 68.9129 23.4538 69.3041C23.0626 69.6954 22.8428 70.226 22.8428 70.7793C22.8428 71.3326 23.0626 71.8632 23.4538 72.2545C23.845 72.6457 24.3757 72.8655 24.929 72.8655H69.7579L69.76 72.8651V84.3764L69.7579 84.376H14.5451C13.9918 84.376 13.4611 84.5958 13.0699 84.987C12.6787 85.3782 12.4589 85.9089 12.4589 86.4622C12.4589 87.0155 12.6787 87.5461 13.0699 87.9374C13.4611 88.3286 13.9918 88.5484 14.5451 88.5484H69.7579L69.76 88.548V100.059H23.1983C22.645 100.059 22.1143 100.279 21.7231 100.67C21.3318 101.061 21.112 101.592 21.112 102.145C21.112 102.698 21.3318 103.229 21.7231 103.62C22.1143 104.011 22.645 104.231 23.1983 104.231H32.5507C30.7537 105.792 29.6138 108.09 29.6138 110.657V172.108C29.6138 176.798 33.3907 180.592 38.08 180.617L174.496 180.565C175.049 180.565 175.58 180.345 175.971 179.954C176.363 179.563 176.582 179.032 176.582 178.479C176.582 177.925 176.363 177.395 175.971 177.003C175.58 176.612 175.049 176.392 174.496 176.392H144.075C144.838 175.093 145.24 173.615 145.24 172.108V166.968H191.802C192.355 166.968 192.886 166.748 193.277 166.357C193.668 165.966 193.888 165.435 193.888 164.882C193.888 164.328 193.668 163.798 193.277 163.406C192.886 163.015 192.355 162.795 191.802 162.795H145.24V151.284L145.242 151.284H200.455C201.003 151.277 201.526 151.054 201.911 150.663C202.296 150.273 202.512 149.747 202.512 149.198C202.512 148.65 202.296 148.124 201.911 147.734C201.526 147.343 201.003 147.12 200.455 147.112Z" fill="#2A2AB5" fill-opacity="0.0627451"/>
<path d="M185.386 37.9085V99.3596C185.386 104.049 181.609 107.843 176.92 107.868H78.2684C73.5686 107.868 69.76 104.063 69.76 99.3596V37.9085C69.76 33.2087 73.5686 29.3968 78.2684 29.3968H176.878C181.585 29.3964 185.386 33.2087 185.386 37.9085Z" fill="white"/>
<path d="M69.7593 99.3587L124.509 64.6533C125.464 64.0477 126.572 63.7267 127.703 63.7279C128.834 63.7291 129.942 64.0524 130.896 64.66L185.385 99.3591C185.385 104.055 181.574 107.867 176.878 107.867H78.2668C73.562 107.866 69.7593 104.055 69.7593 99.3587Z" fill="#CCCCFF"/>
<path d="M185.384 37.9065L130.638 72.6131C129.682 73.2186 128.574 73.5395 127.443 73.5383C126.312 73.537 125.204 73.2137 124.25 72.606L69.7575 37.9065C69.7575 33.21 73.5694 29.3981 78.2659 29.3981H176.879C181.583 29.3981 185.384 33.21 185.384 37.9065ZM29.6138 100.644V162.095C29.6138 166.785 33.3906 170.579 38.08 170.604H136.732C141.432 170.604 145.24 166.799 145.24 162.095V100.644C145.24 95.9444 141.432 92.1325 136.732 92.1325H38.1222C33.4153 92.1325 29.6138 95.9444 29.6138 100.644Z" fill="white"/>
<path d="M145.241 162.094L90.4914 127.389C89.5361 126.783 88.428 126.462 87.2969 126.464C86.1658 126.465 85.0584 126.788 84.1043 127.396L29.6141 162.094C29.6141 166.79 33.4256 170.602 38.1217 170.602H136.733C141.438 170.602 145.241 166.79 145.241 162.094Z" fill="#CCCCFF"/>
<path d="M121.596 161.004C128.483 161.004 134.067 155.421 134.067 148.533C134.067 141.645 128.483 136.061 121.596 136.061C114.708 136.061 109.124 141.645 109.124 148.533C109.124 155.421 114.708 161.004 121.596 161.004Z" fill="white"/>
<path d="M121.596 156.251C125.858 156.251 129.314 152.795 129.314 148.533C129.314 144.27 125.858 140.815 121.596 140.815C117.333 140.815 113.877 144.27 113.877 148.533C113.877 152.795 117.333 156.251 121.596 156.251Z" fill="#CCCCFF"/>
<path d="M29.616 100.642L84.3623 135.349C85.3178 135.954 86.4259 136.275 87.5571 136.274C88.6883 136.273 89.7958 135.949 90.7499 135.342L145.243 100.642C145.243 95.9457 141.431 92.1338 136.734 92.1338H38.121C33.4175 92.1338 29.616 95.9457 29.616 100.642Z" fill="white"/>
<path d="M161.742 98.268C168.63 98.268 174.214 92.6844 174.214 85.7967C174.214 78.9089 168.63 73.3253 161.742 73.3253C154.855 73.3253 149.271 78.9089 149.271 85.7967C149.271 92.6844 154.855 98.268 161.742 98.268Z" fill="white"/>
<path d="M161.742 93.5148C166.005 93.5148 169.46 90.0593 169.46 85.7967C169.46 81.5341 166.005 78.0785 161.742 78.0785C157.48 78.0785 154.024 81.5341 154.024 85.7967C154.024 90.0593 157.48 93.5148 161.742 93.5148Z" fill="#CCCCFF"/>
<path d="M136.153 148.533C136.153 140.506 129.622 133.975 121.595 133.975C113.569 133.975 107.038 140.505 107.038 148.533C107.038 156.56 113.568 163.09 121.595 163.09C129.623 163.09 136.153 156.56 136.153 148.533ZM111.211 148.533C111.211 142.807 115.87 138.148 121.596 138.148C127.322 138.148 131.981 142.807 131.981 148.533C131.981 154.259 127.322 158.918 121.596 158.918C115.869 158.918 111.211 154.259 111.211 148.533Z" fill="#4285F4"/>
<path d="M200.455 137.099H147.327V125.588H190.071C190.624 125.588 191.155 125.368 191.546 124.977C191.937 124.586 192.157 124.055 192.157 123.502C192.157 122.948 191.937 122.418 191.546 122.026C191.155 121.635 190.624 121.415 190.071 121.415H147.327V109.952H173.599L173.609 109.952H176.879C182.72 109.952 187.472 105.199 187.472 99.3579C187.472 98.8046 187.253 98.2739 186.861 97.8827C186.47 97.4915 185.939 97.2717 185.386 97.2717C184.833 97.2717 184.302 97.4915 183.911 97.8827C183.52 98.2739 183.3 98.8046 183.3 99.3579C183.3 102.899 180.419 105.779 176.879 105.779H147.327V100.643C147.329 98.3212 146.564 96.0639 145.151 94.2216H149.88C152.522 97.9297 156.853 100.355 161.742 100.355C169.769 100.355 176.299 93.8244 176.299 85.7975C176.299 77.7706 169.769 71.2399 161.742 71.2399C153.715 71.2399 147.184 77.7706 147.184 85.7975C147.184 87.2762 147.407 88.7036 147.819 90.0492H71.8466V41.7096L123.129 74.3647C124.42 75.1858 125.919 75.6209 127.449 75.6189C128.947 75.6189 130.446 75.2041 131.755 74.3751L183.301 41.6979V86.8444C183.301 87.3977 183.521 87.9283 183.912 88.3195C184.303 88.7108 184.834 88.9306 185.387 88.9306C185.94 88.9306 186.471 88.7108 186.862 88.3195C187.253 87.9283 187.473 87.3977 187.473 86.8444V37.906C187.473 32.0646 182.721 27.3123 176.879 27.3123H78.268L78.2517 27.3127H49.157C48.6037 27.3127 48.073 27.5325 47.6818 27.9237C47.2906 28.3149 47.0708 28.8456 47.0708 29.3989C47.0708 29.9522 47.2906 30.4828 47.6818 30.8741C48.073 31.2653 48.6037 31.4851 49.157 31.4851H69.8493C68.4366 33.3273 67.6719 35.5845 67.6738 37.906V42.996H40.2576C39.7043 42.996 39.1737 43.2158 38.7824 43.607C38.3912 43.9982 38.1714 44.5289 38.1714 45.0822C38.1714 45.6355 38.3912 46.1661 38.7824 46.5574C39.1737 46.9486 39.7043 47.1684 40.2576 47.1684H67.6738V58.6793H24.929C24.3757 58.6793 23.845 58.8991 23.4538 59.2903C23.0626 59.6815 22.8428 60.2122 22.8428 60.7655C22.8428 61.3188 23.0626 61.8494 23.4538 62.2407C23.845 62.6319 24.3757 62.8517 24.929 62.8517H67.6742V74.3626H14.5451C13.9918 74.3626 13.4611 74.5824 13.0699 74.9736C12.6787 75.3648 12.4589 75.8955 12.4589 76.4488C12.4589 77.0021 12.6787 77.5327 13.0699 77.924C13.4611 78.3152 13.9918 78.535 14.5451 78.535H67.6742V90.0459H23.1983C22.645 90.0459 22.1143 90.2657 21.7231 90.6569C21.3318 91.0481 21.112 91.5788 21.112 92.1321C21.112 92.6854 21.3318 93.216 21.7231 93.6072C22.1143 93.9985 22.645 94.2183 23.1983 94.2183H29.706C28.292 96.0611 27.5265 98.3194 27.5284 100.642V162.094C27.5284 167.936 32.2808 172.688 38.1222 172.688H52.056C52.6093 172.688 53.1399 172.468 53.5311 172.077C53.9224 171.686 54.1422 171.155 54.1422 170.602C54.1422 170.049 53.9224 169.518 53.5311 169.127C53.1399 168.736 52.6093 168.516 52.056 168.516H38.1222C34.5815 168.516 31.7008 165.635 31.7008 162.094V104.434L83.2457 137.111C84.5342 137.925 86.0277 138.356 87.552 138.355C89.0815 138.356 90.5797 137.922 91.8705 137.101L143.155 104.444V107.853C143.155 107.857 143.154 107.861 143.154 107.865C143.154 107.869 143.155 107.873 143.155 107.877V154.858L143.154 154.868L143.155 154.878V162.094C143.155 165.375 140.681 168.084 137.501 168.465L64.5699 168.516C64.0166 168.516 63.486 168.736 63.0947 169.127C62.7035 169.518 62.4837 170.049 62.4837 170.602C62.4837 171.155 62.7035 171.686 63.0947 172.077C63.486 172.468 64.0166 172.688 64.5699 172.688L174.496 172.638C175.049 172.638 175.58 172.418 175.971 172.027C176.362 171.635 176.582 171.105 176.582 170.551C176.582 169.998 176.362 169.468 175.971 169.076C175.58 168.685 175.049 168.465 174.496 168.465H145.191C146.579 166.632 147.329 164.394 147.327 162.094V156.954H191.802C192.355 156.954 192.886 156.735 193.277 156.343C193.668 155.952 193.888 155.421 193.888 154.868C193.888 154.315 193.668 153.784 193.277 153.393C192.886 153.002 192.355 152.782 191.802 152.782H147.327V141.271H200.455C201.008 141.271 201.539 141.051 201.93 140.66C202.321 140.269 202.541 139.738 202.541 139.185C202.541 138.632 202.321 138.101 201.93 137.71C201.539 137.318 201.008 137.099 200.455 137.099ZM151.357 85.7967C151.357 80.07 156.016 75.4115 161.742 75.4115C167.468 75.4115 172.127 80.0704 172.127 85.7967C172.127 91.5229 167.468 96.1818 161.742 96.1818C159.565 96.1836 157.443 95.4972 155.68 94.2208H165.842C166.396 94.2208 166.926 94.001 167.318 93.6098C167.709 93.2185 167.929 92.6879 167.929 92.1346C167.929 91.5813 167.709 91.0506 167.318 90.6594C166.926 90.2682 166.396 90.0484 165.842 90.0484H152.271C151.668 88.7122 151.356 87.2627 151.357 85.7967ZM78.2667 31.4851L78.2709 31.4847H176.879C180.049 31.4847 182.683 33.7958 183.201 36.82L129.521 70.8506C128.9 71.2426 128.18 71.4503 127.445 71.4495C126.711 71.4487 125.991 71.2394 125.371 70.8461L71.9447 36.8254C72.4604 33.8008 75.0915 31.4888 78.2596 31.4851H78.2667ZM89.6278 133.583C89.0074 133.975 88.2884 134.184 87.5541 134.185C86.8198 134.186 86.1003 133.978 85.4792 133.587L31.7997 99.5565C32.3179 96.5319 34.952 94.2212 38.1222 94.2212H136.733C139.905 94.2212 142.54 96.5344 143.056 99.5611L89.6278 133.583Z" fill="#4285F4"/>
<path d="M144.295 194.018C143.741 194.018 143.211 193.798 142.819 193.407C142.428 193.015 142.208 192.485 142.208 191.931C142.208 191.231 141.929 190.559 141.434 190.064C140.938 189.568 140.266 189.29 139.566 189.289C139.013 189.289 138.482 189.069 138.091 188.678C137.7 188.287 137.48 187.756 137.48 187.203C137.48 186.65 137.7 186.119 138.091 185.728C138.482 185.336 139.013 185.117 139.566 185.117C140.266 185.116 140.938 184.837 141.434 184.342C141.929 183.846 142.208 183.175 142.208 182.474C142.208 181.921 142.428 181.39 142.819 180.999C143.211 180.608 143.741 180.388 144.295 180.388C144.848 180.388 145.378 180.608 145.77 180.999C146.161 181.39 146.381 181.921 146.381 182.474C146.382 183.175 146.66 183.846 147.156 184.342C147.651 184.837 148.323 185.116 149.023 185.117C149.576 185.117 150.107 185.336 150.498 185.728C150.89 186.119 151.109 186.65 151.109 187.203C151.109 187.756 150.89 188.287 150.498 188.678C150.107 189.069 149.576 189.289 149.023 189.289C148.323 189.29 147.651 189.568 147.156 190.064C146.66 190.559 146.382 191.231 146.381 191.931C146.381 192.485 146.161 193.015 145.77 193.407C145.378 193.798 144.848 194.018 144.295 194.018ZM24.8844 192.159C24.3311 192.159 23.8005 191.939 23.4092 191.548C23.018 191.157 22.7982 190.626 22.7982 190.073C22.7974 189.372 22.5188 188.7 22.0234 188.205C21.528 187.71 20.8564 187.431 20.1558 187.43C19.6025 187.43 19.0719 187.21 18.6806 186.819C18.2894 186.428 18.0696 185.897 18.0696 185.344C18.0696 184.791 18.2894 184.26 18.6806 183.869C19.0719 183.478 19.6025 183.258 20.1558 183.258C20.8564 183.257 21.528 182.978 22.0234 182.483C22.5188 181.988 22.7974 181.316 22.7982 180.615C22.7982 180.062 23.018 179.531 23.4092 179.14C23.8005 178.749 24.3311 178.529 24.8844 178.529C25.4377 178.529 25.9683 178.749 26.3596 179.14C26.7508 179.531 26.9706 180.062 26.9706 180.615C26.9714 181.316 27.25 181.988 27.7454 182.483C28.2408 182.978 28.9124 183.257 29.613 183.258C30.1663 183.258 30.6969 183.478 31.0882 183.869C31.4794 184.26 31.6992 184.791 31.6992 185.344C31.6992 185.897 31.4794 186.428 31.0882 186.819C30.6969 187.21 30.1663 187.43 29.613 187.43C28.9124 187.431 28.2408 187.71 27.7454 188.205C27.25 188.7 26.9714 189.372 26.9706 190.073C26.9706 190.626 26.7508 191.157 26.3596 191.548C25.9683 191.939 25.4377 192.159 24.8844 192.159ZM100.633 20.447C100.08 20.447 99.5495 20.2272 99.1583 19.8359C98.767 19.4447 98.5472 18.914 98.5472 18.3607C98.5465 17.6602 98.2678 16.9885 97.7725 16.4931C97.2771 15.9978 96.6054 15.7191 95.9049 15.7183C95.3516 15.7183 94.8209 15.4986 94.4297 15.1073C94.0384 14.7161 93.8186 14.1854 93.8186 13.6321C93.8186 13.0788 94.0384 12.5482 94.4297 12.157C94.8209 11.7657 95.3516 11.5459 95.9049 11.5459C96.6054 11.5452 97.2771 11.2665 97.7725 10.7711C98.2678 10.2758 98.5465 9.6041 98.5472 8.90353C98.5472 8.35024 98.767 7.8196 99.1583 7.42836C99.5495 7.03712 100.08 6.81732 100.633 6.81732C101.187 6.81732 101.717 7.03712 102.109 7.42836C102.5 7.8196 102.72 8.35024 102.72 8.90353C102.72 9.6041 102.999 10.2758 103.494 10.7711C103.99 11.2665 104.661 11.5452 105.362 11.5459C105.915 11.5459 106.446 11.7657 106.837 12.157C107.228 12.5482 107.448 13.0788 107.448 13.6321C107.448 14.1854 107.228 14.7161 106.837 15.1073C106.446 15.4986 105.915 15.7183 105.362 15.7183C104.661 15.7191 103.99 15.9978 103.494 16.4931C102.999 16.9885 102.72 17.6602 102.72 18.3607C102.72 18.914 102.5 19.4447 102.109 19.8359C101.717 20.2272 101.187 20.447 100.633 20.447ZM194.406 115.561C193.994 115.561 193.59 115.439 193.247 115.209C192.904 114.98 192.637 114.655 192.479 114.273C192.321 113.892 192.28 113.473 192.36 113.068C192.44 112.663 192.639 112.292 192.931 112L197.103 107.827C197.497 107.449 198.024 107.241 198.57 107.246C199.115 107.252 199.638 107.471 200.024 107.857C200.41 108.243 200.629 108.766 200.635 109.311C200.64 109.857 200.432 110.384 200.054 110.778L195.881 114.95C195.688 115.144 195.458 115.298 195.205 115.403C194.951 115.508 194.68 115.561 194.406 115.561ZM81.1512 20.3076C80.7386 20.3076 80.3353 20.1852 79.9922 19.956C79.6492 19.7268 79.3818 19.401 79.2239 19.0199C79.0659 18.6387 79.0246 18.2193 79.105 17.8146C79.1855 17.4099 79.3841 17.0382 79.6758 16.7464L83.8482 12.574C84.2421 12.1959 84.7686 11.9873 85.3145 11.9929C85.8605 11.9984 86.3826 12.2178 86.7687 12.6039C87.1547 12.99 87.3741 13.512 87.3797 14.058C87.3853 14.604 87.1767 15.1304 86.7985 15.5243L82.6261 19.6968C82.4326 19.8907 82.2027 20.0445 81.9496 20.1494C81.6965 20.2542 81.4251 20.308 81.1512 20.3076Z" fill="#CCCCFF"/>
<defs>
<linearGradient id="paint0_linear_10_673" x1="29.6167" y1="186.059" x2="199.51" y2="16.1656" gradientUnits="userSpaceOnUse">
<stop stop-color="#D2DBFC" stop-opacity="0"/>
<stop offset="1" stop-color="#B8C2FB"/>
</linearGradient>
</defs>
</svg>
