<svg width="201" height="181" viewBox="0 0 201 181" fill="none" xmlns="http://www.w3.org/2000/svg">
<path d="M24.5341 9.34413C-9.82335 30.0273 -11.1816 146.019 45.7552 98.4773C73.1407 75.6101 76.9704 107.667 95.0329 91.1742C100.189 86.466 104.459 75.9883 111.776 78.1664C140.855 86.8234 95.7309 117.845 86.6528 132.832C71.8048 157.346 97.0294 183.98 124.256 179.676C140.455 177.115 146.544 160.022 169.965 164.189C186.304 167.095 204.52 154.367 199.718 138.894C192.652 116.128 166.143 99.0062 168.682 73.3273C170.725 52.6699 157.214 21.5168 141.216 18.8684C115.822 14.6641 87.6216 66.6902 73.1579 27.2746C67.6669 12.3113 50.547 27.7969 44.8423 20.3019C39.0024 12.6281 34.3134 3.45703 24.5341 9.34413Z" fill="url(#paint0_linear_10_1212)"/>
<path d="M170.357 25.6875H37.2086C32.8961 25.6875 29.3961 29.1836 29.3961 33.5V116.608C22.0247 122.304 17.2727 131.225 17.2727 141.262C17.2727 158.462 31.2168 172.407 48.4176 172.407C57.704 172.407 66.036 168.337 71.7422 161.891H170.357C174.67 161.891 178.17 158.395 178.17 154.078V33.5C178.17 29.1836 174.67 25.6875 170.357 25.6875Z" fill="#2626BC" fill-opacity="0.0627451"/>
<path d="M178.17 24.125V144.703C178.17 149.02 174.67 152.516 170.357 152.516H37.2087C32.8962 152.516 29.3962 149.02 29.3962 144.703V24.125C29.3962 19.8086 32.8962 16.3125 37.2087 16.3125H170.357C174.67 16.3125 178.17 19.8086 178.17 24.125Z" fill="white"/>
<path d="M164.973 141.569H43.3734C42.8554 141.569 42.3587 141.363 41.9924 140.997C41.6261 140.631 41.4203 140.134 41.4203 139.616V48.2824C41.4203 47.7644 41.6261 47.2676 41.9924 46.9013C42.3587 46.5351 42.8554 46.3293 43.3734 46.3293H164.973C165.491 46.3293 165.988 46.5351 166.354 46.9013C166.72 47.2676 166.926 47.7644 166.926 48.2824V139.616C166.926 140.134 166.72 140.631 166.354 140.997C165.988 141.363 165.491 141.569 164.973 141.569ZM178.169 36.9809V24.1246C178.169 19.8098 174.671 16.3121 170.357 16.3121H37.209C32.8941 16.3121 29.3965 19.8098 29.3965 24.1246V36.9809H178.169Z" fill="#CCCCFF"/>
<path d="M43.3735 29.5488C44.4522 29.5488 45.3267 28.6744 45.3267 27.5957C45.3267 26.517 44.4522 25.6426 43.3735 25.6426C42.2949 25.6426 41.4204 26.517 41.4204 27.5957C41.4204 28.6744 42.2949 29.5488 43.3735 29.5488Z" fill="#4285F4"/>
<path d="M49.9802 29.5488C51.0589 29.5488 51.9334 28.6744 51.9334 27.5957C51.9334 26.517 51.0589 25.6426 49.9802 25.6426C48.9015 25.6426 48.0271 26.517 48.0271 27.5957C48.0271 28.6744 48.9015 29.5488 49.9802 29.5488Z" fill="#4285F4"/>
<path d="M56.5869 29.5488C57.6656 29.5488 58.54 28.6744 58.54 27.5957C58.54 26.517 57.6656 25.6426 56.5869 25.6426C55.5082 25.6426 54.6338 26.517 54.6338 27.5957C54.6338 28.6744 55.5082 29.5488 56.5869 29.5488Z" fill="#4285F4"/>
<path d="M164.192 29.5488H67.7102C67.1922 29.5488 66.6954 29.3431 66.3291 28.9768C65.9629 28.6105 65.7571 28.1137 65.7571 27.5957C65.7571 27.0777 65.9629 26.5809 66.3291 26.2146C66.6954 25.8484 67.1922 25.6426 67.7102 25.6426H164.192C164.71 25.6426 165.207 25.8484 165.573 26.2146C165.939 26.5809 166.145 27.0777 166.145 27.5957C166.145 28.1137 165.939 28.6105 165.573 28.9768C165.207 29.3431 164.71 29.5488 164.192 29.5488Z" fill="#4285F4"/>
<path d="M138.053 88.2324H100.531C99.796 88.2324 99.0915 87.9406 98.5722 87.4212C98.0528 86.9019 97.761 86.1974 97.761 85.4629V76.0574C97.761 75.3229 98.0528 74.6185 98.5722 74.0991C99.0915 73.5797 99.796 73.2879 100.531 73.2879H138.053C138.788 73.2879 139.492 73.5797 140.012 74.0991C140.531 74.6185 140.823 75.3229 140.823 76.0574V85.4629C140.823 86.1974 140.531 86.9019 140.012 87.4212C139.492 87.9406 138.788 88.2324 138.053 88.2324Z" fill="white"/>
<path d="M105.865 83.068C107.14 83.068 108.173 82.0347 108.173 80.7601C108.173 79.4856 107.14 78.4523 105.865 78.4523C104.59 78.4523 103.557 79.4856 103.557 80.7601C103.557 82.0347 104.59 83.068 105.865 83.068Z" fill="#4285F4"/>
<path d="M114.676 83.068C115.951 83.068 116.984 82.0347 116.984 80.7601C116.984 79.4856 115.951 78.4523 114.676 78.4523C113.401 78.4523 112.368 79.4856 112.368 80.7601C112.368 82.0347 113.401 83.068 114.676 83.068Z" fill="#4285F4"/>
<path d="M123.487 83.068C124.761 83.068 125.794 82.0347 125.794 80.7601C125.794 79.4856 124.761 78.4523 123.487 78.4523C122.212 78.4523 121.179 79.4856 121.179 80.7601C121.179 82.0347 122.212 83.068 123.487 83.068Z" fill="#4285F4"/>
<path d="M132.297 83.068C133.572 83.068 134.605 82.0347 134.605 80.7601C134.605 79.4856 133.572 78.4523 132.297 78.4523C131.022 78.4523 129.989 79.4856 129.989 80.7601C129.989 82.0347 131.022 83.068 132.297 83.068Z" fill="#4285F4"/>
<path d="M138.053 109.209H100.531C99.796 109.209 99.0915 108.917 98.5722 108.398C98.0528 107.878 97.761 107.174 97.761 106.439V97.034C97.761 96.2995 98.0528 95.595 98.5722 95.0756C99.0915 94.5562 99.796 94.2645 100.531 94.2645H138.053C138.788 94.2645 139.492 94.5562 140.012 95.0756C140.531 95.595 140.823 96.2995 140.823 97.034V106.439C140.823 107.174 140.531 107.878 140.012 108.398C139.492 108.917 138.788 109.209 138.053 109.209Z" fill="white"/>
<path d="M105.865 104.045C107.14 104.045 108.173 103.011 108.173 101.737C108.173 100.462 107.14 99.4289 105.865 99.4289C104.59 99.4289 103.557 100.462 103.557 101.737C103.557 103.011 104.59 104.045 105.865 104.045Z" fill="#4285F4"/>
<path d="M114.676 104.045C115.951 104.045 116.984 103.011 116.984 101.737C116.984 100.462 115.951 99.4289 114.676 99.4289C113.401 99.4289 112.368 100.462 112.368 101.737C112.368 103.011 113.401 104.045 114.676 104.045Z" fill="#4285F4"/>
<path d="M123.487 104.045C124.761 104.045 125.794 103.011 125.794 101.737C125.794 100.462 124.761 99.4289 123.487 99.4289C122.212 99.4289 121.179 100.462 121.179 101.737C121.179 103.011 122.212 104.045 123.487 104.045Z" fill="#4285F4"/>
<path d="M132.297 104.045C133.572 104.045 134.605 103.011 134.605 101.737C134.605 100.462 133.572 99.4289 132.297 99.4289C131.022 99.4289 129.989 100.462 129.989 101.737C129.989 103.011 131.022 104.045 132.297 104.045Z" fill="#4285F4"/>
<path d="M84.4637 91.9543C83.8837 91.9542 83.3275 91.7237 82.9173 91.3136C82.5072 90.9034 82.2767 90.3472 82.2766 89.7672V81.2316C82.2766 78.8051 80.3024 76.8309 77.8758 76.8309C75.4493 76.8309 73.475 78.8051 73.475 81.2316V82.768C73.4642 83.3409 73.229 83.8866 72.8201 84.288C72.4111 84.6893 71.8609 84.9141 71.2879 84.9141C70.7149 84.9141 70.1648 84.6893 69.7558 84.288C69.3468 83.8866 69.1117 83.3409 69.1008 82.768V81.2316C69.1008 76.393 73.0375 72.4566 77.8762 72.4566C82.7149 72.4566 86.6512 76.3933 86.6512 81.2316V89.7672C86.6511 90.3473 86.4206 90.9036 86.0104 91.3137C85.6002 91.7239 85.0438 91.9543 84.4637 91.9543Z" fill="white"/>
<path d="M84.6341 110.04H71.1173C68.7013 110.04 66.7427 108.082 66.7427 105.666V94.0984C66.7427 91.6824 68.7013 89.7238 71.1173 89.7238H84.6341C87.0501 89.7238 89.0087 91.6824 89.0087 94.0984V105.666C89.0083 108.082 87.0501 110.04 84.6341 110.04Z" fill="white"/>
<path d="M77.8754 104.885C77.2214 104.885 76.5942 104.625 76.1317 104.163C75.6692 103.7 75.4094 103.073 75.4094 102.419V100.023C75.4094 99.3694 75.6692 98.7422 76.1317 98.2797C76.5942 97.8172 77.2214 97.5574 77.8754 97.5574C78.5295 97.5574 79.1567 97.8172 79.6192 98.2797C80.0816 98.7422 80.3415 99.3694 80.3415 100.023V102.419C80.3415 102.743 80.2778 103.064 80.1538 103.363C80.0299 103.662 79.8483 103.934 79.6193 104.163C79.3903 104.392 79.1184 104.574 78.8192 104.698C78.52 104.821 78.1993 104.885 77.8754 104.885Z" fill="#CCCCFF"/>
<path d="M48.4176 163.032C65.6185 163.032 79.5625 149.088 79.5625 131.887C79.5625 114.686 65.6185 100.742 48.4176 100.742C31.2168 100.742 17.2727 114.686 17.2727 131.887C17.2727 149.088 31.2168 163.032 48.4176 163.032Z" fill="#CCCCFF"/>
<path d="M48.4177 157.062C62.3219 157.062 73.5935 145.791 73.5935 131.887C73.5935 117.983 62.3219 106.711 48.4177 106.711C34.5135 106.711 23.2419 117.983 23.2419 131.887C23.2419 145.791 34.5135 157.062 48.4177 157.062Z" fill="#CCCCFF"/>
<path d="M67.1692 153.055V156.755C61.9504 160.696 55.4583 163.032 48.4192 163.032C41.3801 163.032 34.884 160.696 29.6692 156.759V153.055C29.6692 146.45 35.0247 141.095 41.6301 141.095H44.0129V133.52H52.8215V141.095H55.2043C61.8137 141.094 67.1692 146.45 67.1692 153.055Z" fill="white"/>
<path d="M48.4177 139.613C41.4806 139.613 35.8572 133.99 35.8572 127.053V123.753C35.8572 116.816 41.4806 111.193 48.4177 111.193C55.3548 111.193 60.9783 116.816 60.9783 123.753V127.053C60.9783 133.99 55.3548 139.613 48.4177 139.613Z" fill="white"/>
<path d="M40.677 152.333V162.063C39.3372 161.72 38.0325 161.29 36.7708 160.778V152.333C36.7708 151.255 37.6458 150.38 38.7239 150.38C39.2629 150.38 39.7512 150.598 40.1028 150.95C40.4583 151.305 40.677 151.794 40.677 152.333ZM60.0637 152.333V160.782C58.802 161.29 57.4973 161.72 56.1575 162.063V152.333C56.1575 151.255 57.0325 150.38 58.1106 150.38C58.6497 150.38 59.1418 150.598 59.4934 150.95C59.845 151.305 60.0637 151.794 60.0637 152.333Z" fill="#CCCCFF"/>
<path d="M178.168 74.2168C177.65 74.2168 177.153 74.4226 176.787 74.7889C176.421 75.1551 176.215 75.6519 176.215 76.1699V144.705C176.215 147.936 173.587 150.564 170.356 150.564H75.724C79.3744 145.244 81.5158 138.812 81.5158 131.887C81.5158 113.636 66.6682 98.7887 48.4178 98.7887C42.4002 98.7818 36.496 100.426 31.3479 103.541V24.123C31.3479 20.8922 33.9764 18.2637 37.2072 18.2637H75.0432C75.5612 18.2637 76.058 18.0579 76.4242 17.6916C76.7905 17.3253 76.9963 16.8285 76.9963 16.3105C76.9963 15.7925 76.7905 15.2958 76.4242 14.9295C76.058 14.5632 75.5612 14.3574 75.0432 14.3574H37.2072C31.8225 14.3574 27.4416 18.7383 27.4416 24.123V106.305C20.0459 112.38 15.3193 121.591 15.3193 131.887C15.3193 150.137 30.167 164.985 48.4174 164.985C57.944 164.985 66.5377 160.934 72.5818 154.47H170.355C175.74 154.47 180.121 150.089 180.121 144.705V76.1699C180.121 75.9134 180.071 75.6595 179.972 75.4225C179.874 75.1855 179.731 74.9701 179.549 74.7888C179.368 74.6074 179.153 74.4635 178.916 74.3654C178.679 74.2672 178.425 74.2167 178.168 74.2168ZM48.4178 161.079C32.3213 161.079 19.226 147.983 19.226 131.887C19.226 115.79 32.3213 102.695 48.4178 102.695C64.5143 102.695 77.6096 115.79 77.6096 131.887C77.6096 147.983 64.5143 161.079 48.4178 161.079ZM170.357 14.359H86.5236C86.0056 14.359 85.5089 14.5648 85.1426 14.931C84.7763 15.2973 84.5705 15.7941 84.5705 16.3121C84.5705 16.8301 84.7763 17.3269 85.1426 17.6932C85.5089 18.0595 86.0056 18.2652 86.5236 18.2652H170.357C173.588 18.2652 176.216 20.8938 176.216 24.1246V64.6879C176.216 65.2059 176.422 65.7027 176.788 66.069C177.155 66.4352 177.651 66.641 178.169 66.641C178.687 66.641 179.184 66.4352 179.55 66.069C179.917 65.7027 180.122 65.2059 180.122 64.6879V24.1246C180.122 18.7398 175.742 14.359 170.357 14.359Z" fill="#4285F4"/>
<path d="M85.1153 174.096C84.9347 174.097 84.755 174.072 84.5813 174.022C79.4602 172.566 79.0766 165.219 79.0625 164.907C79.0434 164.475 79.1678 164.049 79.4163 163.696C79.6648 163.343 80.0234 163.082 80.436 162.954L84.5375 161.684C84.9138 161.567 85.3167 161.567 85.693 161.684L89.7945 162.954C90.2071 163.082 90.5657 163.343 90.8142 163.696C91.0627 164.049 91.1871 164.475 91.168 164.907C91.1539 165.219 90.7703 172.566 85.6492 174.022C85.4755 174.072 85.2958 174.097 85.1153 174.096ZM83.159 166.2C83.4313 167.575 84.0156 169.318 85.1149 170.021C86.2133 169.318 86.7985 167.576 87.0707 166.2L85.1149 165.594L83.159 166.2ZM190.091 122.616C189.911 122.616 189.731 122.591 189.557 122.542C184.436 121.086 184.052 113.739 184.039 113.427C184.02 112.995 184.144 112.569 184.392 112.216C184.641 111.863 185 111.602 185.412 111.474L189.514 110.204C189.89 110.087 190.293 110.087 190.669 110.204L194.771 111.474C195.183 111.602 195.542 111.863 195.79 112.216C196.039 112.569 196.163 112.995 196.144 113.427C196.13 113.739 195.747 121.086 190.625 122.542C190.452 122.591 190.272 122.616 190.091 122.616ZM188.136 114.72C188.407 116.095 188.992 117.838 190.091 118.541C191.19 117.838 191.775 116.096 192.047 114.72L190.091 114.114L188.136 114.72ZM73.4192 177.612C73.1626 177.612 72.9085 177.562 72.6714 177.464C72.4344 177.366 72.2191 177.222 72.0379 177.04L69.9035 174.905L67.7692 177.04C67.5887 177.225 67.3732 177.372 67.1353 177.474C66.8974 177.575 66.6417 177.628 66.3831 177.63C66.1246 177.631 65.8682 177.582 65.629 177.483C65.3898 177.385 65.1725 177.24 64.9896 177.058C64.8068 176.875 64.6621 176.658 64.5639 176.418C64.4656 176.179 64.4159 175.923 64.4175 175.664C64.4191 175.406 64.4721 175.15 64.5733 174.912C64.6745 174.674 64.8219 174.459 65.0071 174.278L68.5227 170.762C68.889 170.396 69.3857 170.19 69.9037 170.19C70.4217 170.19 70.9185 170.396 71.2848 170.762L74.8004 174.278C75.0739 174.551 75.2602 174.899 75.3357 175.278C75.4112 175.657 75.3726 176.05 75.2247 176.407C75.0768 176.764 74.8263 177.069 74.5049 177.284C74.1834 177.498 73.8056 177.612 73.4192 177.612ZM51.5426 8.28554C51.286 8.28588 51.0319 8.2355 50.7948 8.13729C50.5578 8.03908 50.3425 7.89498 50.1614 7.71328L48.027 5.5789L45.8926 7.71328C45.7121 7.89843 45.4966 8.0459 45.2587 8.14713C45.0208 8.24837 44.7651 8.30135 44.5066 8.30301C44.248 8.30466 43.9917 8.25496 43.7525 8.15679C43.5133 8.05861 43.2959 7.91391 43.1131 7.73109C42.9302 7.54826 42.7855 7.33095 42.6873 7.09176C42.5891 6.85256 42.5393 6.59625 42.541 6.33769C42.5426 6.07912 42.5955 5.82345 42.6967 5.5855C42.7979 5.34756 42.9454 5.13208 43.1305 4.95156L46.6461 1.43594C47.0124 1.06966 47.5092 0.863892 48.0272 0.863892C48.5452 0.863892 49.0419 1.06966 49.4082 1.43594L52.9238 4.95156C53.1973 5.22458 53.3836 5.57263 53.4591 5.9516C53.5347 6.33058 53.496 6.72345 53.3481 7.08046C53.2002 7.43746 52.9497 7.74254 52.6283 7.95707C52.3069 8.1716 51.929 8.28591 51.5426 8.28554ZM19.6164 98.9242C19.3598 98.9246 19.1057 98.8742 18.8687 98.776C18.6316 98.6777 18.4163 98.5337 18.2352 98.352L16.1008 96.2176L13.9664 98.352C13.7859 98.5371 13.5705 98.6846 13.3325 98.7858C13.0946 98.887 12.839 98.94 12.5804 98.9417C12.3218 98.9433 12.0655 98.8936 11.8263 98.7955C11.5871 98.6973 11.3698 98.5526 11.1869 98.3698C11.0041 98.1869 10.8593 97.9696 10.7611 97.7304C10.6629 97.4912 10.6132 97.2349 10.6148 96.9763C10.6164 96.7178 10.6694 96.4621 10.7706 96.2242C10.8718 95.9862 11.0192 95.7708 11.2043 95.5902L14.7199 92.0746C15.0862 91.7083 15.583 91.5026 16.101 91.5026C16.619 91.5026 17.1158 91.7083 17.4821 92.0746L20.9977 95.5902C21.2711 95.8633 21.4574 96.2113 21.533 96.5903C21.6085 96.9692 21.5699 97.3621 21.422 97.7191C21.2741 98.0761 21.0235 98.3812 20.7021 98.5957C20.3807 98.8103 20.0029 98.9246 19.6164 98.9242Z" fill="#CCCCFF"/>
<defs>
<linearGradient id="paint0_linear_10_1212" x1="48.7548" y1="143.336" x2="159.527" y2="32.5641" gradientUnits="userSpaceOnUse">
<stop stop-color="#CEDBFC" stop-opacity="0"/>
<stop offset="1" stop-color="#B4C2FC"/>
</linearGradient>
</defs>
</svg>
