<svg width="178" height="200" viewBox="0 0 178 200" fill="none" xmlns="http://www.w3.org/2000/svg">
<path d="M151.191 65.4849C174.059 53.6692 190.333 15.7513 162.727 3.71572C124.039 -13.1515 121.299 33.8286 48.4393 17.3763C33.7038 14.0489 22.5858 36.179 36.5714 44.0079C44.9026 48.6716 53.9022 46.1817 62.5706 46.3556C85.903 46.8235 59.4007 65.1567 50.6069 70.6946C7.05846 98.1181 -4.96927 119.363 1.73034 145.068C13.7616 191.229 125.883 212.842 148.595 192.093C170.631 171.962 172.668 134.592 143.678 118.852C131.79 112.397 116.806 114.239 105.762 107.079C80.3631 90.6134 136.963 72.836 151.191 65.4849Z" fill="url(#paint0_linear_11_1537)"/>
<path opacity="0.1" d="M145.36 65.1067C144.937 64.9891 144.487 65.017 144.083 65.1858C143.678 65.3546 143.342 65.6546 143.128 66.0376C142.86 66.513 142.828 67.0876 142.983 67.611L144.501 72.7423C144.79 73.7204 145.764 74.3825 146.765 74.1876C147.033 74.1364 147.287 74.0296 147.511 73.8742C147.735 73.7187 147.924 73.5181 148.066 73.2851C148.208 73.0522 148.3 72.7922 148.335 72.5217C148.37 72.2513 148.348 71.9765 148.271 71.7149L147.745 69.9372C153.365 71.8993 154.964 73.7052 154.964 74.4798C154.964 76.1185 149.793 79.486 135.288 82.1337C136.348 77.8334 136.799 73.4055 136.628 68.9798C135.659 43.5329 114.34 23.3106 88.8764 23.6372C65.7194 23.9341 46.5885 40.9192 42.9506 63.1173C42.7398 63.084 42.5249 63.0858 42.3147 63.1227C35.717 64.3602 30.4999 65.827 26.8092 67.4825C22.3057 69.5024 20.1163 71.7911 20.1163 74.4802C20.1163 78.256 24.5358 81.3224 33.6272 83.854C34.0577 83.9736 34.5162 83.9422 34.9264 83.765C35.3366 83.5878 35.6738 83.2756 35.8819 82.8802C36.1299 82.4153 36.1553 81.8622 36.0061 81.3567L34.4858 76.2142C34.1967 75.236 33.2233 74.5735 32.2217 74.7685C31.9539 74.8198 31.6998 74.9266 31.4758 75.082C31.2518 75.2374 31.0627 75.438 30.9209 75.6709C30.7791 75.9037 30.6875 76.1637 30.6522 76.4341C30.6169 76.7045 30.6386 76.9792 30.7159 77.2407L31.2432 79.0235C25.6225 77.0618 24.0229 75.2556 24.0229 74.4802C24.0229 73.8036 25.1713 72.4985 28.4081 71.047C31.6674 69.5852 36.5233 68.2142 42.4713 67.0708C42.3739 68.3124 42.325 69.5574 42.3249 70.8028C42.3249 79.8544 44.8764 88.3091 49.2963 95.4907C46.4788 94.2327 43.4129 93.629 40.3288 93.7247C29.5499 94.047 20.7667 102.832 20.453 113.611C20.1092 125.415 29.7428 135.055 41.5444 134.723C52.4545 134.415 61.3002 125.437 61.4577 114.524C61.4911 112.314 61.1671 110.114 60.4983 108.008C65.1199 111.617 70.3754 114.329 75.994 116.006H75.9756V122.545C75.9756 124.702 77.7245 126.451 79.8819 126.451H81.1815L81.1803 133.156C66.3682 133.156 59.9713 143.727 59.9713 143.727H20.3206C19.8026 143.727 19.3058 143.932 18.9395 144.299C18.5732 144.665 18.3674 145.162 18.3674 145.68V184.81C18.3674 185.328 18.5732 185.825 18.9395 186.191C19.3058 186.558 19.8026 186.763 20.3206 186.763H59.9713L64.4245 191.072C67.1056 193.666 70.69 195.116 74.4206 195.116H108.973C112.208 195.116 114.832 192.493 114.832 189.257V187.688C114.832 184.452 112.208 181.828 108.973 181.828H112.098C115.333 181.828 117.957 179.205 117.957 175.969V174.4C117.957 171.164 115.333 168.54 112.098 168.54C115.333 168.54 117.957 165.917 117.957 162.681V161.112C117.957 157.876 115.333 155.252 112.098 155.252H110.535C113.771 155.252 116.394 152.629 116.394 149.393V147.824C116.394 144.588 113.771 141.965 110.535 141.965L105.801 141.963V139.104C105.801 135.819 103.139 133.156 99.8537 133.156H97.8065V126.45H99.1057C101.263 126.45 103.012 124.702 103.012 122.544V116.006H103C117.518 111.674 129.099 100.54 134.052 86.3028C138.646 85.5255 142.726 84.6274 146.165 83.6251C154.715 81.1329 158.871 78.1415 158.871 74.4798C158.871 70.7056 154.451 67.6392 145.36 65.1067Z" fill="#4285F4"/>
<path d="M18.3674 134.352H66.9694V177.388H18.3674V134.352Z" fill="#CCCCFF"/>
<path d="M117.957 153.306V151.737C117.957 148.501 115.333 145.878 112.097 145.878H110.535C113.771 145.878 116.394 143.254 116.394 140.018V138.449C116.394 135.213 113.771 132.59 110.535 132.59H81.1807V123.781C66.3686 123.781 59.9717 134.352 59.9717 134.352V177.388L64.4248 181.697C67.1058 184.291 70.6901 185.741 74.4205 185.741H108.972C112.208 185.741 114.832 183.118 114.832 179.882V178.313C114.832 175.077 112.208 172.453 108.972 172.453H112.097C115.333 172.453 117.957 169.83 117.957 166.594V165.025C117.957 161.789 115.333 159.165 112.097 159.165C115.333 159.166 117.957 156.542 117.957 153.306Z" fill="white"/>
<path d="M18.3674 177.388H59.9713L64.4245 181.697C67.1055 184.291 70.6898 185.741 74.4202 185.741H108.972C112.208 185.741 114.832 183.118 114.832 179.882V178.313C114.832 175.077 112.208 172.453 108.972 172.453H112.097C115.333 172.453 117.957 169.83 117.957 166.594V165.025C117.957 161.789 115.333 159.165 112.097 159.165C115.333 159.165 117.957 156.542 117.957 153.306V151.737C117.957 148.501 115.333 145.877 112.097 145.877H110.535C113.771 145.877 116.394 143.254 116.394 140.018V138.449C116.394 135.213 113.771 132.59 110.535 132.59H81.1803V123.781C66.3682 123.781 59.9713 134.351 59.9713 134.351H42.4917M29.4745 134.352H18.3674" stroke="#4285F4" stroke-width="4" stroke-miterlimit="10" stroke-linecap="round" stroke-linejoin="round"/>
<path d="M81.1814 111.382H97.8064V132.589H81.1814V111.382Z" fill="#CCCCFF"/>
<path d="M81.1814 111.382H97.8064V132.589H81.1814V111.382Z" stroke="#4285F4" stroke-width="4" stroke-miterlimit="10" stroke-linecap="round" stroke-linejoin="round"/>
<path d="M75.9756 106.631V113.169C75.9756 115.327 77.7244 117.076 79.8818 117.076H99.1057C101.263 117.076 103.012 115.327 103.012 113.169V106.631H75.9756Z" fill="white"/>
<path d="M75.9756 106.631V113.169C75.9756 115.327 77.7244 117.076 79.8818 117.076H99.1057C101.263 117.076 103.012 115.327 103.012 113.169V106.631H75.9756Z" stroke="#4285F4" stroke-width="4" stroke-miterlimit="10" stroke-linecap="round" stroke-linejoin="round"/>
<path d="M97.8064 123.781V132.589H105.801V129.729C105.801 126.444 103.138 123.781 99.8537 123.781H97.8064Z" fill="white"/>
<path d="M97.8064 123.781V132.589H105.801V129.729C105.801 126.444 103.138 123.781 99.8537 123.781H97.8064Z" stroke="#4285F4" stroke-width="4" stroke-miterlimit="10" stroke-linecap="round" stroke-linejoin="round"/>
<path d="M89.4941 108.597C115.545 108.597 136.663 87.4782 136.663 61.4274C136.663 35.3766 115.545 14.2583 89.4941 14.2583C63.4433 14.2583 42.325 35.3766 42.325 61.4274C42.325 87.4782 63.4433 108.597 89.4941 108.597Z" fill="#CCCCFF"/>
<path d="M89.4939 100.895C111.291 100.895 128.962 83.2248 128.962 61.4274C128.962 39.6301 111.291 21.9598 89.4939 21.9598C67.6966 21.9598 50.0264 39.6301 50.0264 61.4274C50.0264 83.2248 67.6966 100.895 89.4939 100.895Z" fill="white"/>
<path d="M96.8394 91.7263C107.929 89.0309 117.125 80.32 119.867 68.4411M59.1206 54.4138C61.8628 42.5349 71.0581 33.8278 82.148 31.1286" stroke="#CCCCFF" stroke-width="4" stroke-miterlimit="10" stroke-linecap="round" stroke-linejoin="round"/>
<path d="M136.184 54.704C132.92 31.8384 113.262 14.2583 89.4941 14.2583C63.4433 14.2583 42.325 35.3767 42.325 61.4274C42.325 87.4782 63.4433 108.597 89.4941 108.597C113.411 108.597 133.168 90.7962 136.244 67.7212" stroke="#4285F4" stroke-width="4" stroke-miterlimit="10" stroke-linecap="round" stroke-linejoin="round"/>
<path d="M81.1226 81.1712L64.1402 64.1892C63.7739 63.8229 63.5681 63.3261 63.5681 62.8081C63.5681 62.2901 63.7739 61.7933 64.1402 61.4271L69.6644 55.9028C70.0307 55.5366 70.5274 55.3308 71.0454 55.3308C71.5634 55.3308 72.0602 55.5366 72.4265 55.9028L83.3323 66.8087L106.561 43.5798C106.927 43.2135 107.424 43.0078 107.942 43.0078C108.46 43.0078 108.957 43.2135 109.323 43.5798L114.847 49.104C115.213 49.4703 115.419 49.9671 115.419 50.4851C115.419 51.0031 115.213 51.4998 114.847 51.8661L85.5417 81.1716C84.9556 81.7575 84.1608 82.0866 83.3321 82.0865C82.5033 82.0865 81.7086 81.7572 81.1226 81.1712Z" fill="#4285F4"/>
<path d="M89.4937 92.5013V92.5462M82.4819 91.8005V91.8458M89.4937 30.2263V30.2712M96.5062 31.0095V31.0544" stroke="#CCCCFF" stroke-width="4" stroke-miterlimit="10" stroke-linecap="round" stroke-linejoin="round"/>
<path d="M146.398 62.8942L144.835 57.613C152.449 59.7341 156.917 62.32 156.917 65.1052C156.917 70.4841 140.273 75.1052 116.46 77.1286M32.5894 67.3122L34.1519 72.5974C26.5347 70.4763 22.0698 67.8903 22.0698 65.1052C22.0698 61.3981 29.9722 58.0505 42.6753 55.6677" stroke="#4285F4" stroke-width="4" stroke-miterlimit="10" stroke-linecap="round" stroke-linejoin="round"/>
<path d="M36.4675 18.8083C36.4675 21.2532 34.4854 23.2352 32.0405 23.2352C34.4854 23.2352 36.4675 25.2173 36.4675 27.6622C36.4675 25.2173 38.4495 23.2352 40.8944 23.2352C38.4495 23.2352 36.4675 21.2532 36.4675 18.8083Z" stroke="#CCCCFF" stroke-width="4" stroke-miterlimit="10" stroke-linecap="round" stroke-linejoin="round"/>
<path d="M136.403 137.276C138.56 137.276 140.309 135.527 140.309 133.37C140.309 131.213 138.56 129.464 136.403 129.464C134.245 129.464 132.496 131.213 132.496 133.37C132.496 135.527 134.245 137.276 136.403 137.276Z" stroke="#CCCCFF" stroke-width="4" stroke-miterlimit="10" stroke-linecap="round" stroke-linejoin="round"/>
<path d="M160.826 87.4185C160.826 89.8634 158.844 91.8454 156.399 91.8454C158.844 91.8454 160.826 93.8274 160.826 96.2724C160.826 93.8274 162.808 91.8454 165.253 91.8454C162.808 91.8458 160.826 89.8634 160.826 87.4185ZM136.403 154.675C136.403 157.12 134.421 159.102 131.976 159.102C134.421 159.102 136.403 161.084 136.403 163.529C136.403 161.084 138.385 159.102 140.829 159.102C138.385 159.102 136.403 157.12 136.403 154.675Z" stroke="#CCCCFF" stroke-width="4" stroke-miterlimit="10" stroke-linecap="round" stroke-linejoin="round"/>
<path d="M13.5056 51.7747C15.663 51.7747 17.4119 50.0258 17.4119 47.8685C17.4119 45.7111 15.663 43.9622 13.5056 43.9622C11.3483 43.9622 9.59937 45.7111 9.59937 47.8685C9.59937 50.0258 11.3483 51.7747 13.5056 51.7747Z" stroke="#CCCCFF" stroke-width="4" stroke-miterlimit="10" stroke-linecap="round" stroke-linejoin="round"/>
<defs>
<linearGradient id="paint0_linear_11_1537" x1="42.7629" y1="157.374" x2="166.603" y2="62.6258" gradientUnits="userSpaceOnUse">
<stop stop-color="#CEDBFC" stop-opacity="0"/>
<stop offset="1" stop-color="#B4C2FC"/>
</linearGradient>
</defs>
</svg>
