<svg width="197" height="200" viewBox="0 0 197 200" fill="none" xmlns="http://www.w3.org/2000/svg">
<path d="M195.194 167.784C196.79 161.394 198.307 152.206 187.212 142.105C152.487 110.492 215.755 103.797 169.796 50.8383C141.777 18.5516 58.4859 -28.534 38.0781 22.6609C25.6699 53.7883 -0.672288 51.3613 0.752321 76.157C1.66443 92.0355 26.4355 93.934 15.8133 121.334C4.96795 149.309 62.698 167.464 76.6304 141.532C80.2765 134.746 86.891 114.884 95.4379 120.76C116.03 134.916 103.268 172.097 117.14 189.504C132.595 208.894 186.828 201.286 195.194 167.784Z" fill="url(#paint0_linear_10_637)"/>
<path opacity="0.1" d="M170.936 166.091H166.305V128.521C166.305 126.363 164.557 124.614 162.399 124.614H146.964V99.3605H164.993C167.569 99.3605 169.657 97.2727 169.657 94.6973V62.9117C169.657 60.5676 167.925 58.6328 165.672 58.3035V41.1469C165.672 30.8309 157.279 22.4383 146.963 22.4383C137.391 22.4383 129.48 29.666 128.388 38.9496L35.6535 38.9484C27.7094 38.9484 21.2695 45.3883 21.2695 53.3324V81.6976C21.2695 84.3457 23.416 86.4922 26.0641 86.4922H50.1328V124.615H31.4746C29.3172 124.615 27.5684 126.364 27.5684 128.521V169.404C27.5684 171.561 29.3172 173.31 31.4746 173.31H50.1324V174.176C50.1324 182.118 56.5738 188.559 64.5191 188.559H64.5348L64.518 188.559H161.348C169.292 188.559 175.732 182.12 175.732 174.175V170.886C175.731 168.238 173.584 166.091 170.936 166.091ZM146.963 31.3801C152.348 31.3801 156.729 35.7613 156.729 41.1465V58.248H146.964V53.332C146.964 47.041 142.924 41.6988 137.298 39.7453C137.98 35.0219 142.054 31.3801 146.963 31.3801Z" fill="#4285F4"/>
<path d="M89.8663 29.573H35.653C27.7089 29.573 21.269 36.0129 21.269 43.957V72.3223C21.269 74.9703 23.4155 77.1168 26.0636 77.1168H70.6874C73.3354 77.1168 75.4819 74.9703 75.4819 72.3223V43.957C75.4823 36.0121 81.9214 29.573 89.8663 29.573Z" fill="#CCCCFF"/>
<path d="M161.347 179.184H64.519C56.5737 179.184 50.1323 172.742 50.1323 164.801V43.957C50.1323 36.0117 43.6948 29.5742 35.7495 29.5742H132.578C140.523 29.5742 146.964 36.0117 146.964 43.957V164.801C146.964 172.746 153.402 179.184 161.347 179.184Z" fill="white"/>
<path d="M141.765 32.8867C139.023 34.6133 137.195 37.6719 137.195 41.1484V61.0781H128.254V41.1484C128.254 36.7852 129.757 32.7617 132.273 29.5742H132.578C136.07 29.5742 139.273 30.8164 141.765 32.8867ZM69.3118 85.2051H104.54V141.245H69.3118V85.2051Z" fill="#CCCCFF"/>
<path d="M162.399 163.935H31.4746C29.3172 163.935 27.5684 162.186 27.5684 160.029V120.708C27.5684 118.551 29.3172 116.802 31.4746 116.802H162.399C164.557 116.802 166.305 118.551 166.305 120.708V160.029C166.305 162.186 164.557 163.935 162.399 163.935Z" fill="#CCCCFF"/>
<path d="M61.3458 138.12H59.6696L60.5353 137.255C60.7179 137.074 60.863 136.858 60.9622 136.621C61.0614 136.384 61.1128 136.129 61.1134 135.872C61.1139 135.615 61.0637 135.36 60.9655 135.122C60.8673 134.884 60.7232 134.668 60.5413 134.487C60.3594 134.305 60.1434 134.16 59.9057 134.062C59.668 133.964 59.4132 133.914 59.156 133.914C58.8988 133.915 58.6442 133.966 58.4069 134.066C58.1696 134.165 57.9542 134.31 57.7731 134.493L56.9075 135.358V133.682C56.9075 133.164 56.7017 132.667 56.3355 132.301C55.9692 131.935 55.4724 131.729 54.9544 131.729C54.4364 131.729 53.9396 131.935 53.5733 132.301C53.207 132.667 53.0013 133.164 53.0013 133.682V135.358L52.1356 134.493C51.7669 134.139 51.274 133.943 50.7629 133.948C50.2517 133.954 49.763 134.159 49.4015 134.521C49.0401 134.882 48.8347 135.371 48.8295 135.882C48.8242 136.393 49.0195 136.886 49.3735 137.255L50.2392 138.12H48.563C48.045 138.12 47.5482 138.326 47.1819 138.692C46.8156 139.059 46.6099 139.555 46.6099 140.073C46.6099 140.591 46.8156 141.088 47.1819 141.455C47.5482 141.821 48.045 142.027 48.563 142.027H50.2392L49.3735 142.892C49.1922 143.074 49.0483 143.289 48.9502 143.526C48.852 143.763 48.8015 144.017 48.8015 144.273C48.8016 144.53 48.8521 144.784 48.9503 145.021C49.0484 145.258 49.1923 145.473 49.3737 145.654C49.5551 145.836 49.7705 145.98 50.0074 146.078C50.2444 146.176 50.4984 146.227 50.7549 146.226C51.0114 146.226 51.2654 146.176 51.5024 146.078C51.7394 145.98 51.9547 145.836 52.136 145.654L53.0017 144.789V146.465C53.0017 146.983 53.2074 147.48 53.5737 147.846C53.94 148.212 54.4368 148.418 54.9548 148.418C55.4728 148.418 55.9696 148.212 56.3359 147.846C56.7021 147.48 56.9079 146.983 56.9079 146.465V144.789L57.7735 145.654C58.1552 146.036 58.6548 146.226 59.1548 146.226C59.6548 146.226 60.1544 146.036 60.536 145.654C60.9023 145.288 61.1081 144.791 61.1081 144.273C61.1081 143.755 60.9023 143.258 60.536 142.892L59.6704 142.027H61.3466C61.8646 142.026 62.3613 141.821 62.7275 141.454C63.0937 141.088 63.2994 140.591 63.2993 140.073C63.2992 139.555 63.0933 139.058 62.727 138.692C62.3606 138.326 61.8638 138.12 61.3458 138.12ZM89.3345 138.12H87.6583L88.5239 137.255C88.7066 137.074 88.8517 136.858 88.9509 136.621C89.0501 136.384 89.1015 136.129 89.102 135.872C89.1026 135.615 89.0524 135.36 88.9542 135.122C88.856 134.884 88.7119 134.668 88.53 134.487C88.3481 134.305 88.1321 134.16 87.8944 134.062C87.6566 133.964 87.4019 133.914 87.1446 133.914C86.8874 133.915 86.6329 133.966 86.3956 134.066C86.1583 134.165 85.9429 134.31 85.7618 134.493L84.8962 135.358V133.682C84.8962 133.164 84.6904 132.667 84.3241 132.301C83.9579 131.935 83.4611 131.729 82.9431 131.729C82.4251 131.729 81.9283 131.935 81.562 132.301C81.1957 132.667 80.9899 133.164 80.9899 133.682V135.358L80.1243 134.493C79.7555 134.139 79.2627 133.943 78.7515 133.948C78.2404 133.954 77.7517 134.159 77.3902 134.521C77.0287 134.882 76.8234 135.371 76.8181 135.882C76.8129 136.393 77.0082 136.886 77.3622 137.255L78.2278 138.12H76.5517C76.0337 138.12 75.5369 138.326 75.1706 138.692C74.8043 139.059 74.5985 139.555 74.5985 140.073C74.5985 140.591 74.8043 141.088 75.1706 141.455C75.5369 141.821 76.0337 142.027 76.5517 142.027H78.2278L77.3622 142.892C77.1808 143.074 77.037 143.289 76.9388 143.526C76.8407 143.763 76.7902 144.017 76.7902 144.273C76.7902 144.53 76.8408 144.784 76.9389 145.021C77.0371 145.258 77.181 145.473 77.3624 145.654C77.5438 145.836 77.7591 145.98 77.9961 146.078C78.2331 146.176 78.4871 146.227 78.7436 146.226C79.0001 146.226 79.2541 146.176 79.4911 146.078C79.728 145.98 79.9433 145.836 80.1247 145.654L80.9903 144.789V146.465C80.9903 146.983 81.1961 147.48 81.5624 147.846C81.9287 148.212 82.4255 148.418 82.9435 148.418C83.4615 148.418 83.9582 148.212 84.3245 147.846C84.6908 147.48 84.8966 146.983 84.8966 146.465V144.789L85.7622 145.654C86.1438 146.036 86.6435 146.226 87.1435 146.226C87.6435 146.226 88.1431 146.036 88.5247 145.654C88.891 145.288 89.0967 144.791 89.0967 144.273C89.0967 143.755 88.891 143.258 88.5247 142.892L87.6591 142.027H89.3353C89.5917 142.027 89.8457 141.976 90.0826 141.878C90.3196 141.78 90.5349 141.636 90.7162 141.454C90.8975 141.273 91.0414 141.057 91.1395 140.821C91.2376 140.584 91.288 140.33 91.288 140.073C91.2879 139.817 91.2374 139.563 91.1392 139.326C91.041 139.089 90.8971 138.873 90.7157 138.692C90.5343 138.511 90.3189 138.367 90.0819 138.269C89.8449 138.171 89.591 138.12 89.3345 138.12ZM117.323 138.12H115.647L116.512 137.255C116.695 137.074 116.84 136.858 116.939 136.621C117.038 136.384 117.09 136.129 117.09 135.872C117.091 135.615 117.041 135.36 116.942 135.122C116.844 134.884 116.7 134.668 116.518 134.487C116.336 134.305 116.12 134.16 115.883 134.062C115.645 133.964 115.39 133.914 115.133 133.914C114.876 133.915 114.621 133.966 114.384 134.066C114.147 134.165 113.931 134.31 113.75 134.493L112.884 135.358V133.682C112.884 133.164 112.679 132.667 112.312 132.301C111.946 131.935 111.449 131.729 110.931 131.729C110.413 131.729 109.917 131.935 109.55 132.301C109.184 132.667 108.978 133.164 108.978 133.682V135.358L108.113 134.493C107.744 134.139 107.251 133.943 106.74 133.948C106.229 133.954 105.74 134.159 105.378 134.521C105.017 134.882 104.812 135.371 104.806 135.882C104.801 136.393 104.996 136.886 105.35 137.255L106.216 138.12H104.54C104.022 138.12 103.525 138.326 103.159 138.692C102.793 139.059 102.587 139.555 102.587 140.073C102.587 140.591 102.793 141.088 103.159 141.455C103.525 141.821 104.022 142.027 104.54 142.027H106.216L105.35 142.892C105.169 143.074 105.025 143.289 104.927 143.526C104.829 143.763 104.778 144.017 104.778 144.273C104.779 144.53 104.829 144.784 104.927 145.021C105.025 145.258 105.169 145.473 105.351 145.654C105.532 145.836 105.747 145.98 105.984 146.078C106.221 146.176 106.475 146.227 106.732 146.226C106.988 146.226 107.242 146.176 107.479 146.078C107.716 145.98 107.932 145.836 108.113 145.654L108.979 144.789V146.465C108.979 146.983 109.184 147.48 109.551 147.846C109.917 148.212 110.414 148.418 110.932 148.418C111.45 148.418 111.947 148.212 112.313 147.846C112.679 147.48 112.885 146.983 112.885 146.465V144.789L113.75 145.654C114.132 146.036 114.632 146.226 115.132 146.226C115.632 146.226 116.131 146.036 116.513 145.654C116.879 145.288 117.085 144.791 117.085 144.273C117.085 143.755 116.879 143.258 116.513 142.892L115.647 142.027H117.324C117.842 142.026 118.338 141.821 118.704 141.454C119.071 141.088 119.276 140.591 119.276 140.073C119.276 139.555 119.07 139.058 118.704 138.692C118.338 138.326 117.841 138.12 117.323 138.12ZM145.311 138.12H143.635L144.501 137.255C144.684 137.074 144.829 136.858 144.928 136.621C145.027 136.384 145.078 136.129 145.079 135.872C145.08 135.615 145.029 135.36 144.931 135.122C144.833 134.884 144.689 134.668 144.507 134.487C144.325 134.305 144.109 134.16 143.871 134.062C143.634 133.964 143.379 133.914 143.122 133.914C142.864 133.915 142.61 133.966 142.373 134.066C142.135 134.165 141.92 134.31 141.739 134.493L140.873 135.358V133.682C140.873 133.164 140.667 132.667 140.301 132.301C139.935 131.935 139.438 131.729 138.92 131.729C138.402 131.729 137.905 131.935 137.539 132.301C137.173 132.667 136.967 133.164 136.967 133.682V135.358L136.101 134.493C135.732 134.139 135.24 133.943 134.728 133.948C134.217 133.954 133.729 134.159 133.367 134.521C133.006 134.882 132.8 135.371 132.795 135.882C132.79 136.393 132.985 136.886 133.339 137.255L134.205 138.12H132.529C132.011 138.12 131.514 138.326 131.148 138.692C130.781 139.059 130.575 139.555 130.575 140.073C130.575 140.591 130.781 141.088 131.148 141.455C131.514 141.821 132.011 142.027 132.529 142.027H134.205L133.339 142.892C132.973 143.259 132.767 143.755 132.767 144.273C132.767 144.791 132.973 145.288 133.339 145.654C133.706 146.021 134.203 146.227 134.721 146.226C135.239 146.226 135.735 146.021 136.102 145.654L136.967 144.789V146.465C136.967 146.983 137.173 147.48 137.539 147.846C137.906 148.212 138.402 148.418 138.92 148.418C139.438 148.418 139.935 148.212 140.301 147.846C140.668 147.48 140.874 146.983 140.874 146.465V144.789L141.739 145.654C142.121 146.036 142.62 146.226 143.12 146.226C143.62 146.226 144.12 146.036 144.502 145.654C144.868 145.288 145.074 144.791 145.074 144.273C145.074 143.755 144.868 143.258 144.502 142.892L143.636 142.027H145.312C145.83 142.026 146.327 141.821 146.693 141.454C147.059 141.088 147.265 140.591 147.265 140.073C147.265 139.555 147.059 139.058 146.693 138.692C146.326 138.326 145.829 138.12 145.311 138.12Z" fill="white"/>
<path d="M64.5176 179.184H161.347C169.291 179.184 175.731 172.744 175.731 164.8V161.511C175.731 158.863 173.584 156.716 170.936 156.716H83.6961C81.048 156.716 78.9016 158.863 78.9016 161.511V164.8C78.9016 172.745 72.4621 179.184 64.5176 179.184Z" fill="#CCCCFF"/>
<path d="M137.197 51.7047V31.7719C137.197 26.3867 141.578 22.0055 146.963 22.0055C152.348 22.0055 156.729 26.3867 156.729 31.7719V51.7047H165.672V31.7719C165.672 21.4559 157.279 13.0633 146.963 13.0633C136.647 13.0633 128.254 21.4559 128.254 31.7719V51.7047H137.197Z" fill="white"/>
<path d="M164.993 89.9856H128.933C126.357 89.9856 124.27 87.8977 124.27 85.3223V53.5367C124.27 50.9613 126.357 48.8734 128.933 48.8734H164.993C167.568 48.8734 169.656 50.9613 169.656 53.5367V85.3223C169.656 87.8977 167.568 89.9856 164.993 89.9856Z" fill="#CCCCFF"/>
<path d="M170.936 154.763H168.259V120.708C168.259 117.477 165.63 114.849 162.4 114.849H148.916V100.773C148.916 100.255 148.711 99.7587 148.344 99.3924C147.978 99.0261 147.481 98.8203 146.963 98.8203C146.445 98.8203 145.948 99.0261 145.582 99.3924C145.216 99.7587 145.01 100.255 145.01 100.773V114.849H87.6487C87.1307 114.849 86.6339 115.055 86.2677 115.421C85.9014 115.787 85.6956 116.284 85.6956 116.802C85.6956 117.32 85.9014 117.817 86.2677 118.183C86.6339 118.549 87.1307 118.755 87.6487 118.755H162.399C163.476 118.755 164.352 119.631 164.352 120.708V154.763H83.696C79.9753 154.763 76.9483 157.79 76.9483 161.511V161.982H31.4745C30.3976 161.982 29.5214 161.105 29.5214 160.029V120.708C29.5214 119.631 30.3976 118.755 31.4745 118.755H76.3948C76.9128 118.755 77.4096 118.549 77.7759 118.183C78.1422 117.817 78.3479 117.32 78.3479 116.802C78.3479 116.284 78.1422 115.787 77.7759 115.421C77.4096 115.055 76.9128 114.849 76.3948 114.849H52.0866V43.957C52.0866 38.9848 49.8546 34.525 46.339 31.5262H126.307C126.306 31.6086 126.301 31.6895 126.301 31.7719V47.4695C123.959 48.4895 122.317 50.8238 122.317 53.5367V85.3223C122.317 88.9707 125.285 91.9387 128.933 91.9387H164.994C168.642 91.9387 171.61 88.9707 171.61 85.3223V53.5367C171.61 50.8234 169.967 48.4891 167.625 47.4691V31.7719C167.625 20.3789 158.357 11.1098 146.964 11.1098C136.992 11.1098 128.648 18.2098 126.721 27.6195H35.7491C35.7327 27.6195 35.7175 27.6238 35.7011 27.6242C35.6847 27.6238 35.6694 27.6195 35.653 27.6195C26.6444 27.6195 19.3159 34.9484 19.3159 43.9566V72.3219C19.3159 76.0426 22.3433 79.0695 26.0636 79.0695H48.1804V114.848H31.4745C28.2437 114.848 25.6151 117.477 25.6151 120.708V160.028C25.6151 163.259 28.2437 165.887 31.4745 165.887H48.2206C48.7831 174.39 55.8753 181.137 64.5175 181.137H161.347C170.355 181.137 177.684 173.808 177.684 164.8V161.511C177.684 157.79 174.657 154.763 170.936 154.763ZM133.948 88.0324V75.5371C133.948 74.4602 134.824 73.584 135.901 73.584H158.025C159.102 73.584 159.978 74.4602 159.978 75.5371V88.0324H133.948ZM167.703 85.3223C167.702 86.0408 167.417 86.7297 166.908 87.2378C166.4 87.7459 165.711 88.0317 164.993 88.0324H163.884V75.5371C163.884 72.3063 161.255 69.6777 158.025 69.6777H135.901C132.67 69.6777 130.041 72.3063 130.041 75.5371V88.0324H128.932C128.214 88.0316 127.525 87.7458 127.017 87.2377C126.509 86.7297 126.223 86.0408 126.222 85.3223V53.5367C126.223 52.8182 126.509 52.1293 127.017 51.6212C127.525 51.1131 128.214 50.8273 128.932 50.8266H164.992C165.711 50.8274 166.4 51.1132 166.908 51.6213C167.416 52.1293 167.702 52.8182 167.703 53.5367V85.3223H167.703ZM154.776 46.9203H148.916V43.957C148.916 37.4574 145.099 31.8367 139.59 29.2082C140.655 26.157 143.553 23.9586 146.963 23.9586C151.271 23.9586 154.776 27.4637 154.776 31.7719V46.9203ZM139.149 33.418C142.664 35.616 145.01 39.5148 145.01 43.957V46.9203H139.149V33.418ZM146.963 15.016C156.201 15.016 163.718 22.5324 163.718 31.7719V46.9203H158.682V31.7719C158.682 25.3098 153.425 20.0524 146.963 20.0524C140.5 20.0524 135.243 25.3098 135.243 31.7719V46.9203H130.207V31.7719C130.207 22.5328 137.724 15.016 146.963 15.016ZM26.0636 75.1637C24.4968 75.1637 23.2222 73.8891 23.2222 72.3223V43.957C23.2222 37.1027 28.7987 31.5262 35.653 31.5262C35.6694 31.5262 35.6847 31.5219 35.7011 31.5215C35.7175 31.5219 35.7327 31.5262 35.7491 31.5262C42.6034 31.5262 48.18 37.1027 48.18 43.957V75.1637H26.0636ZM64.5175 177.231C58.03 177.231 52.6901 172.234 52.137 165.888H76.8979C76.3444 172.234 71.005 177.231 64.5175 177.231ZM173.778 164.8C173.778 171.654 168.201 177.231 161.347 177.231H75.1069C78.6218 174.232 80.8542 169.771 80.8542 164.8V161.511C80.8542 159.944 82.1288 158.67 83.6956 158.67H170.935C172.502 158.67 173.777 159.944 173.777 161.511V164.8H173.778Z" fill="#4285F4"/>
<path d="M132.499 58.6617C133.64 58.6617 134.565 57.7366 134.565 56.5953C134.565 55.4541 133.64 54.5289 132.499 54.5289C131.358 54.5289 130.432 55.4541 130.432 56.5953C130.432 57.7366 131.358 58.6617 132.499 58.6617Z" fill="#4285F4"/>
<path d="M161.427 54.5285C160.879 54.5285 160.353 54.7462 159.966 55.1338C159.578 55.5213 159.361 56.0469 159.361 56.5949C159.361 57.143 159.578 57.6686 159.966 58.0561C160.353 58.4436 160.879 58.6613 161.427 58.6613C161.975 58.6613 162.501 58.4436 162.888 58.0561C163.276 57.6686 163.493 57.143 163.493 56.5949C163.493 56.0469 163.276 55.5213 162.888 55.1338C162.501 54.7462 161.975 54.5285 161.427 54.5285ZM111.215 83.252H65.252C64.734 83.252 64.2372 83.4577 63.8709 83.824C63.5046 84.1903 63.2988 84.6871 63.2988 85.2051C63.2988 85.7231 63.5046 86.2199 63.8709 86.5862C64.2372 86.9524 64.734 87.1582 65.252 87.1582H111.215C111.733 87.1582 112.23 86.9524 112.596 86.5862C112.963 86.2199 113.168 85.7231 113.168 85.2051C113.168 84.6871 112.963 84.1903 112.596 83.824C112.23 83.4577 111.733 83.252 111.215 83.252ZM113.168 92.8C113.168 92.282 112.963 91.7852 112.596 91.4189C112.23 91.0527 111.733 90.8469 111.215 90.8469H65.252C64.734 90.8469 64.2372 91.0527 63.8709 91.4189C63.5046 91.7852 63.2988 92.282 63.2988 92.8C63.2988 93.318 63.5046 93.8148 63.8709 94.1811C64.2372 94.5474 64.734 94.7531 65.252 94.7531H111.215C111.733 94.7531 112.23 94.5474 112.596 94.1811C112.963 93.8148 113.168 93.318 113.168 92.8ZM65.252 98.4418C64.734 98.4418 64.2372 98.6476 63.8709 99.0139C63.5046 99.3801 63.2988 99.8769 63.2988 100.395C63.2988 100.913 63.5046 101.41 63.8709 101.776C64.2372 102.142 64.734 102.348 65.252 102.348H87.7777C88.2957 102.348 88.7925 102.142 89.1588 101.776C89.5251 101.41 89.7309 100.913 89.7309 100.395C89.7309 99.8769 89.5251 99.3801 89.1588 99.0139C88.7925 98.6476 88.2957 98.4418 87.7777 98.4418H65.252ZM63.2988 66.361C63.2988 66.879 63.5046 67.3757 63.8709 67.742C64.2372 68.1083 64.734 68.3141 65.252 68.3141H85.966C86.484 68.3141 86.9808 68.1083 87.3471 67.742C87.7134 67.3757 87.9191 66.879 87.9191 66.361C87.9191 65.8429 87.7134 65.3462 87.3471 64.9799C86.9808 64.6136 86.484 64.4078 85.966 64.4078H65.252C64.734 64.4078 64.2372 64.6136 63.8709 64.9799C63.5046 65.3462 63.2988 65.8429 63.2988 66.361ZM65.252 75.243H85.966C86.484 75.243 86.9808 75.0372 87.3471 74.6709C87.7134 74.3046 87.9191 73.8079 87.9191 73.2899C87.9191 72.7719 87.7134 72.2751 87.3471 71.9088C86.9808 71.5425 86.484 71.3367 85.966 71.3367H65.252C64.734 71.3367 64.2372 71.5425 63.8709 71.9088C63.5046 72.2751 63.2988 72.7719 63.2988 73.2899C63.2988 73.8079 63.5046 74.3046 63.8709 74.6709C64.2372 75.0372 64.734 75.243 65.252 75.243ZM66.4707 60.5922C66.9887 60.5922 67.4855 60.3864 67.8518 60.0201C68.2181 59.6539 68.4238 59.1571 68.4238 58.6391C68.4238 57.2149 69.5828 56.0559 71.007 56.0559C72.4313 56.0559 73.5902 57.2149 73.5902 58.6391C73.5902 59.1571 73.796 59.6539 74.1623 60.0201C74.5286 60.3864 75.0254 60.5922 75.5434 60.5922C76.0614 60.5922 76.5582 60.3864 76.9244 60.0201C77.2907 59.6539 77.4965 59.1571 77.4965 58.6391C77.4965 56.8742 76.7863 55.2738 75.6391 54.1027C76.7859 52.9317 77.4965 51.3313 77.4965 49.5664C77.4965 45.9879 74.5852 43.077 71.007 43.077C67.4289 43.077 64.5176 45.9883 64.5176 49.5664C64.5176 51.3313 65.2277 52.9317 66.375 54.1027C65.2281 55.2738 64.5176 56.8742 64.5176 58.6391C64.5176 59.1571 64.7234 59.6539 65.0896 60.0201C65.4559 60.3864 65.9527 60.5922 66.4707 60.5922ZM71.007 46.9828C72.4313 46.9828 73.5902 48.1418 73.5902 49.566C73.5902 50.9902 72.4313 52.1492 71.007 52.1492C69.5828 52.1492 68.4238 50.9902 68.4238 49.566C68.4238 48.1418 69.5828 46.9828 71.007 46.9828Z" fill="#4285F4"/>
<path d="M31.648 103.432C31.1299 103.432 30.6332 103.226 30.2669 102.86C29.9006 102.493 29.6948 101.997 29.6948 101.479C29.6948 100.294 28.7312 99.3301 27.5464 99.3301C27.0284 99.3301 26.5316 99.1243 26.1653 98.758C25.799 98.3917 25.5933 97.895 25.5933 97.3769C25.5933 96.8589 25.799 96.3622 26.1653 95.9959C26.5316 95.6296 27.0284 95.4238 27.5464 95.4238C28.7312 95.4238 29.6948 94.4602 29.6948 93.2754C29.6948 92.7574 29.9006 92.2606 30.2669 91.8943C30.6332 91.528 31.1299 91.3223 31.648 91.3223C32.166 91.3223 32.6627 91.528 33.029 91.8943C33.3953 92.2606 33.6011 92.7574 33.6011 93.2754C33.6011 94.4602 34.5647 95.4238 35.7495 95.4238C36.2675 95.4238 36.7643 95.6296 37.1306 95.9959C37.4969 96.3622 37.7026 96.8589 37.7026 97.3769C37.7026 97.895 37.4969 98.3917 37.1306 98.758C36.7643 99.1243 36.2675 99.3301 35.7495 99.3301C35.1799 99.3307 34.6338 99.5572 34.231 99.96C33.8282 100.363 33.6017 100.909 33.6011 101.479C33.6011 101.997 33.3953 102.493 33.029 102.86C32.6627 103.226 32.166 103.432 31.648 103.432ZM179.832 29.8434C179.314 29.8434 178.818 29.6376 178.451 29.2713C178.085 28.905 177.879 28.4082 177.879 27.8902C177.879 26.7055 176.915 25.7418 175.731 25.7418C175.213 25.7418 174.716 25.536 174.35 25.1697C173.983 24.8035 173.778 24.3067 173.778 23.7887C173.778 23.2707 173.983 22.7739 174.35 22.4076C174.716 22.0413 175.213 21.8355 175.731 21.8355C176.915 21.8355 177.879 20.8719 177.879 19.6871C177.879 19.1691 178.085 18.6723 178.451 18.306C178.818 17.9398 179.314 17.734 179.832 17.734C180.35 17.734 180.847 17.9398 181.213 18.306C181.58 18.6723 181.785 19.1691 181.785 19.6871C181.785 20.8719 182.75 21.8355 183.934 21.8355C184.452 21.8355 184.949 22.0413 185.315 22.4076C185.681 22.7739 185.887 23.2707 185.887 23.7887C185.887 24.3067 185.681 24.8035 185.315 25.1697C184.949 25.536 184.452 25.7418 183.934 25.7418C183.364 25.7424 182.818 25.969 182.415 26.3717C182.013 26.7745 181.786 27.3206 181.785 27.8902C181.785 28.4082 181.58 28.905 181.213 29.2713C180.847 29.6376 180.35 29.8434 179.832 29.8434ZM35.7495 185.238C35.2315 185.238 34.7347 185.033 34.3684 184.666C34.0022 184.3 33.7964 183.803 33.7964 183.285C33.7964 182.1 32.8327 181.137 31.648 181.137C31.1299 181.137 30.6332 180.931 30.2669 180.565C29.9006 180.198 29.6948 179.702 29.6948 179.184C29.6948 178.666 29.9006 178.169 30.2669 177.803C30.6332 177.436 31.1299 177.23 31.648 177.23C32.8327 177.23 33.7964 176.267 33.7964 175.082C33.7964 174.564 34.0022 174.067 34.3684 173.701C34.7347 173.335 35.2315 173.129 35.7495 173.129C36.2675 173.129 36.7643 173.335 37.1306 173.701C37.4969 174.067 37.7026 174.564 37.7026 175.082C37.7026 176.267 38.6663 177.23 39.8511 177.23C40.3691 177.23 40.8659 177.436 41.2321 177.803C41.5984 178.169 41.8042 178.666 41.8042 179.184C41.8042 179.702 41.5984 180.198 41.2321 180.565C40.8659 180.931 40.3691 181.137 39.8511 181.137C39.2815 181.137 38.7354 181.364 38.3326 181.767C37.9298 182.169 37.7033 182.716 37.7026 183.285C37.7026 183.803 37.4969 184.3 37.1306 184.666C36.7643 185.033 36.2675 185.238 35.7495 185.238ZM14.6226 174.089C14.1046 174.089 13.6078 173.884 13.2415 173.517C12.8752 173.151 12.6694 172.654 12.6694 172.136C12.6694 170.952 11.7058 169.988 10.521 169.988C10.003 169.988 9.50621 169.782 9.13993 169.416C8.77365 169.05 8.56787 168.553 8.56787 168.035C8.56787 167.517 8.77365 167.02 9.13993 166.654C9.50621 166.287 10.003 166.082 10.521 166.082C11.7058 166.082 12.6694 165.118 12.6694 163.933C12.6694 163.415 12.8752 162.918 13.2415 162.552C13.6078 162.186 14.1046 161.98 14.6226 161.98C15.1406 161.98 15.6373 162.186 16.0036 162.552C16.3699 162.918 16.5757 163.415 16.5757 163.933C16.5757 165.118 17.5394 166.082 18.7241 166.082C19.2421 166.082 19.7389 166.287 20.1052 166.654C20.4715 167.02 20.6772 167.517 20.6772 168.035C20.6772 168.553 20.4715 169.05 20.1052 169.416C19.7389 169.782 19.2421 169.988 18.7241 169.988C18.1545 169.989 17.6084 170.215 17.2056 170.618C16.8029 171.021 16.5763 171.567 16.5757 172.136C16.5757 172.654 16.3699 173.151 16.0036 173.517C15.6373 173.884 15.1406 174.089 14.6226 174.089ZM177.341 46.9828C176.955 46.9827 176.577 46.8681 176.256 46.6535C175.935 46.4389 175.685 46.1339 175.537 45.7771C175.389 45.4202 175.35 45.0276 175.426 44.6488C175.501 44.2699 175.687 43.922 175.96 43.6488L179.866 39.7426C180.234 39.384 180.728 39.1848 181.242 39.188C181.756 39.1913 182.248 39.3969 182.611 39.7602C182.974 40.1234 183.18 40.6152 183.183 41.1289C183.186 41.6426 182.987 42.1369 182.628 42.5047L178.722 46.4109C178.541 46.5925 178.325 46.7365 178.088 46.8347C177.851 46.9328 177.597 46.9832 177.341 46.9828Z" fill="#CCCCFF"/>
<path d="M152.826 69.3277C152.826 65.9652 149.995 63.2637 146.587 63.4762C143.727 63.6547 141.375 65.9406 141.123 68.7953C140.908 71.2332 142.187 73.3953 144.146 74.4707V79.9258C144.146 80.6728 144.443 81.3893 144.971 81.9176C145.5 82.4458 146.216 82.7426 146.963 82.7426C147.71 82.7426 148.427 82.4458 148.955 81.9176C149.483 81.3893 149.78 80.6728 149.78 79.9258V74.4707C151.595 73.4742 152.826 71.5449 152.826 69.3277Z" fill="white"/>
<defs>
<linearGradient id="paint0_linear_10_637" x1="45.8449" y1="167.265" x2="166.203" y2="46.907" gradientUnits="userSpaceOnUse">
<stop stop-color="#D2DEFF" stop-opacity="0"/>
<stop offset="1" stop-color="#B7C5FF"/>
</linearGradient>
</defs>
</svg>
