<svg width="26" height="26" viewBox="0 0 26 26" fill="none" xmlns="http://www.w3.org/2000/svg">
<path d="M22.166 6.83507C18.6564 6.48727 15.1258 6.30811 11.6057 6.30811C9.5189 6.30811 7.43214 6.4135 5.34537 6.62428L3.19537 6.83507" stroke="white" stroke-width="1.5" stroke-linecap="round" stroke-linejoin="round"/>
<path d="M8.99194 5.77077L9.22381 4.39013C9.39243 3.38891 9.5189 2.64062 11.3 2.64062H14.0613C15.8424 2.64062 15.9794 3.43107 16.1375 4.40067L16.3694 5.77077" stroke="white" stroke-width="1.5" stroke-linecap="round" stroke-linejoin="round"/>
<path d="M19.9 10.1655L19.215 20.7785C19.0991 22.4332 19.0042 23.719 16.0638 23.719H9.29758C6.35714 23.719 6.26228 22.4332 6.14635 20.7785L5.4613 10.1655" stroke="white" stroke-width="1.5" stroke-linecap="round" stroke-linejoin="round"/>
<path d="M10.9206 17.9224H14.4302" stroke="white" stroke-width="1.5" stroke-linecap="round" stroke-linejoin="round"/>
<path d="M10.0459 13.7065H15.3155" stroke="white" stroke-width="1.5" stroke-linecap="round" stroke-linejoin="round"/>
</svg>
